<?xml version="1.0" encoding="UTF-8"?>
<svg version="1.1" xmlns="http://www.w3.org/2000/svg" width="800" height="800">
<path d="M0 0 C264 0 528 0 800 0 C800 264 800 528 800 800 C536 800 272 800 0 800 C0 536 0 272 0 0 Z " fill="#FDFDFD" transform="translate(0,0)"/>
<path d="M0 0 C1.60162743 -0.01029488 1.60162743 -0.01029488 3.23561096 -0.02079773 C6.74786871 -0.03902463 10.25967798 -0.03523364 13.77197266 -0.02954102 C16.22523137 -0.03410502 18.6784888 -0.03941124 21.13174438 -0.04542542 C26.26773276 -0.05434867 31.40356558 -0.05194248 36.53955078 -0.04199219 C43.10537356 -0.03050832 49.67065805 -0.05070983 56.23641014 -0.07990932 C61.30149723 -0.09829939 66.36645603 -0.09797313 71.43156815 -0.0922718 C73.85155619 -0.09211891 76.2715531 -0.09813672 78.69150925 -0.11056328 C82.08243836 -0.12552255 85.47238192 -0.11475858 88.86328125 -0.09765625 C89.85269211 -0.10732422 90.84210297 -0.11699219 91.86149597 -0.12695312 C101.81244998 -0.02242034 110.88252504 3.34444134 118.06103516 10.40405273 C122.41255094 15.72706971 124.49508341 20.72656966 126.43603516 27.27905273 C126.72929687 28.23521484 127.02255859 29.19137695 127.32470703 30.17651367 C131.47822176 43.85477274 135.25497546 57.6433929 138.95166016 71.45092773 C139.41862305 73.1945459 139.41862305 73.1945459 139.89501953 74.97338867 C140.4880843 77.19453634 141.07812656 79.41649417 141.66455078 81.6394043 C143.08986598 86.99879354 144.61228656 92.25688968 146.51904297 97.46655273 C147.06103516 99.40405273 147.06103516 99.40405273 147.06103516 103.40405273 C148.11162109 102.92194336 149.16220703 102.43983398 150.24462891 101.94311523 C151.66239756 101.30464988 153.08037781 100.66665425 154.49853516 100.02905273 C155.18625 99.71194336 155.87396484 99.39483398 156.58251953 99.06811523 C157.27539062 98.75874023 157.96826172 98.44936523 158.68212891 98.13061523 C159.30531006 97.84782715 159.92849121 97.56503906 160.57055664 97.27368164 C167.39268595 94.89152062 174.00118872 94.11109441 181.19166565 94.1635437 C182.50177004 94.16098043 182.50177004 94.16098043 183.83834118 94.15836537 C186.74021358 94.15509333 189.64185037 94.16603622 192.54370117 94.17700195 C194.63367202 94.17756656 196.72364327 94.17724854 198.81361389 94.17611694 C204.46996033 94.17554437 210.12622152 94.1872833 215.78254819 94.20126486 C221.70023746 94.21378808 227.6179288 94.21494397 233.53562927 94.21731567 C244.7338772 94.22352576 255.93208597 94.23993022 267.13031667 94.26001465 C279.88239338 94.28238831 292.63447197 94.29337078 305.38656342 94.30340552 C331.61140902 94.32429684 357.83621989 94.35946367 384.06103516 94.40405273 C384.14274963 95.03024002 384.22446411 95.65642731 384.30865479 96.30158997 C384.68592251 99.1760921 385.06875132 102.04982808 385.45166016 104.92358398 C385.64429443 106.40091003 385.64429443 106.40091003 385.84082031 107.90808105 C390.59399868 143.37240103 407.92739244 174.52580934 432.06103516 200.40405273 C433.10710937 201.53133789 433.10710937 201.53133789 434.17431641 202.68139648 C463.29753894 232.97593693 505.29141624 248.63422306 546.68994141 249.59155273 C557.97586752 249.74616555 568.96902976 249.66196732 580.06103516 247.40405273 C581.17736328 247.19780273 582.29369141 246.99155273 583.44384766 246.77905273 C617.36821524 240.10043003 646.61375022 223.606445 671.06103516 199.40405273 C671.55700195 198.92274902 672.05296875 198.44144531 672.56396484 197.94555664 C686.51864747 184.28871714 696.45592212 166.77363275 705.06103516 149.40405273 C705.39103516 149.40405273 705.72103516 149.40405273 706.06103516 149.40405273 C709.0842243 165.66931001 705.75576037 179.68506039 701.59289551 195.38238525 C700.62255591 199.07076698 699.68288749 202.76698639 698.74072266 206.46264648 C698.31546377 208.12956599 697.89016987 209.79647656 697.46484375 211.46337891 C697.13622345 212.75143936 697.13622345 212.75143936 696.80096436 214.06552124 C696.11575386 216.74700382 695.42789274 219.42779338 694.73925781 222.10839844 C690.81605637 237.38712822 686.95452996 252.6811247 683.12179565 267.98275757 C682.46416146 270.6082228 681.805394 273.23339911 681.14553833 275.85830688 C677.90340942 288.76387958 674.68176842 301.66287075 671.88305664 314.67285156 C670.73283501 319.89377141 669.43203431 325.06973077 668.11488342 330.25073242 C667.12621735 334.14084706 666.15136689 338.03431489 665.1796875 341.92871094 C662.2723097 353.57024629 659.33672403 365.20465017 656.39380836 376.83724499 C655.44644257 380.58212464 654.50030701 384.32730543 653.55712891 388.07324219 C646.31939685 416.81214071 646.31939685 416.81214071 642.69775391 429.63452148 C642.35358932 430.86527657 642.35358932 430.86527657 642.00247192 432.12089539 C636.99691 449.47842772 625.44777677 461.94536961 610.15478516 471.15405273 C597.1614473 478.13971825 584.27007648 480.00492884 569.73965454 479.90284729 C568.14919469 479.90658383 566.5587382 479.91208118 564.96828973 479.91916412 C560.64122506 479.9334852 556.31452535 479.92332503 551.9874742 479.90888107 C547.30447693 479.89769369 542.62153098 479.9097843 537.9385376 479.91906738 C529.83730377 479.93211582 521.73617328 479.93102367 513.63493729 479.9204731 C501.91234043 479.90549042 490.18986404 479.91547976 478.467274 479.93199228 C459.43195544 479.95841105 440.39666402 479.96931367 421.36132812 479.96826172 C420.22377537 479.9682034 419.08622261 479.96814507 417.91419856 479.96808498 C413.30463638 479.96781912 408.6950742 479.96750183 404.08551202 479.96712172 C391.38317952 479.96615456 378.68084784 479.96748492 365.97851562 479.97021484 C364.8405388 479.97045474 363.70256198 479.97069463 362.53010102 479.97094179 C343.55553112 479.97534832 324.58098641 479.99157856 305.60643137 480.01543564 C293.91203398 480.02950035 282.21773236 480.0323916 270.52333169 480.02081274 C262.5157534 480.01349008 254.50822341 480.01654947 246.50064977 480.02777118 C241.88177484 480.03384298 237.26303502 480.034936 232.64416885 480.02289391 C228.41414651 480.01193169 224.18436361 480.01476822 219.95435123 480.02843737 C218.42638532 480.03092815 216.89840079 480.02836551 215.37045486 480.02016348 C205.02729403 479.96823917 195.48272806 480.10192575 187.63525391 487.63842773 C181.42057242 494.60874047 180.08724544 501.33896759 180.58056641 510.51733398 C181.56565796 518.48616406 184.86972551 524.07378492 191.02197266 529.15014648 C198.42195743 533.70071184 204.55450281 533.83252832 213.12908936 533.7893219 C214.46373089 533.793332 215.79836901 533.7986601 217.13300061 533.80518764 C220.79012886 533.81931344 224.4470344 533.81491567 228.10417366 533.80747449 C232.05251398 533.80272968 236.0008034 533.81530266 239.9491272 533.82583618 C246.78890096 533.84180554 253.62861549 533.84708765 260.46840668 533.8453083 C270.3695265 533.84292286 280.27055187 533.85892615 290.17164698 533.87976085 C306.25195698 533.91328414 322.33225851 533.93494673 338.41259766 533.94775391 C339.37471292 533.9485234 340.33682818 533.94929288 341.32809845 533.95008569 C345.22609991 533.95318778 349.12410138 533.9562706 353.02210288 533.95932573 C363.74406677 533.96785091 374.46602772 533.97875345 385.18798828 533.99072266 C386.14771635 533.99179067 387.10744442 533.99285869 388.09625515 533.99395908 C404.11220884 534.01206672 420.12814247 534.03806849 436.14407659 534.0688538 C446.01684398 534.08738341 455.88956626 534.09832205 465.7623513 534.09937572 C472.5309571 534.10048126 479.29953201 534.10845164 486.06812474 534.12175936 C489.97022017 534.12915963 493.872248 534.1332882 497.77434921 534.12864113 C501.35218021 534.12442116 504.92987916 534.12944444 508.50769106 534.14154898 C510.40302028 534.14559223 512.29836274 534.13986863 514.19368625 534.13370329 C537.52277769 534.24799533 558.42146713 541.95611121 575.06103516 558.40405273 C575.92728516 559.18780273 576.79353516 559.97155273 577.68603516 560.77905273 C592.81202551 577.49725259 599.0643329 596.93901741 598.37353516 619.16577148 C597.26778417 641.22945286 587.12527728 659.34480941 571.39306641 674.41577148 C554.14863555 689.11830969 532.89208182 694.87829103 510.66601562 693.62280273 C488.79119267 691.78589164 470.87100118 679.63734831 456.51416016 663.68530273 C445.80837448 650.56208158 439.69480832 633.66682531 439.74853516 616.90405273 C439.72436523 615.44225586 439.72436523 615.44225586 439.69970703 613.95092773 C439.69382701 604.8721709 441.31381651 597.72255219 443.06103516 588.40405273 C413.03103516 588.40405273 383.00103516 588.40405273 352.06103516 588.40405273 C353.38103516 593.35405273 354.70103516 598.30405273 356.06103516 603.40405273 C356.43584979 606.99451842 356.6889439 610.16066311 356.62353516 613.71655273 C356.61257813 614.60044678 356.60162109 615.48434082 356.59033203 616.39501953 C355.91521935 637.34789187 346.50814883 656.8456053 331.87744141 671.60717773 C315.83115961 686.59514861 295.94381484 694.20421187 274.12426758 693.93139648 C262.57196867 693.50786988 251.29299881 690.92698766 241.06103516 685.40405273 C239.88541016 684.77563477 239.88541016 684.77563477 238.68603516 684.13452148 C218.66036569 672.77621208 205.58797793 655.35599697 199.06103516 633.40405273 C195.21804566 619.21301339 195.32874174 600.86863957 202.06103516 587.40405273 C200.31113281 587.44852539 200.31113281 587.44852539 198.52587891 587.49389648 C179.61618682 587.45651734 161.73191485 576.82063257 148.56103516 563.95239258 C132.75024507 547.63207508 125.64874261 525.83640151 125.75854492 503.42333984 C126.3534141 480.3617834 137.32349055 462.16657469 153.20947266 446.25170898 C161.96306443 438.01954055 174.63109549 429.19695139 187.06103516 429.40405273 C183.30764455 415.32297851 179.4889764 401.26694404 175.45556641 387.26342773 C174.15166852 382.73419231 172.88030232 378.1965661 171.62353516 373.65405273 C165.69510276 352.23792219 159.71348863 330.8364993 153.45507812 309.51416016 C150.39476019 299.08216976 147.44418059 288.62782361 144.61572266 278.13061523 C140.73070127 263.75351077 136.66990908 249.42387495 132.62353516 235.09155273 C132.38325592 234.2403183 132.14297668 233.38908386 131.89541626 232.51205444 C130.2853877 226.80898205 128.67363832 221.1063976 127.06103516 215.40405273 C126.73393555 214.24679687 126.40683594 213.08954102 126.06982422 211.8972168 C123.73299083 203.63860445 121.37033951 195.39176153 118.87280273 187.18017578 C115.93378205 177.51655318 113.26033088 167.79995504 110.66674805 158.03808594 C108.90914833 151.45615802 107.05756275 144.91728208 105.06103516 138.40405273 C102.41422279 129.76420803 100.06048117 121.05915907 97.73901367 112.3269043 C95.75734087 104.90529203 93.67116979 97.52190908 91.49853516 90.15405273 C89.15978816 82.21374069 86.87663662 74.2616285 84.68603516 66.27905273 C84.43523193 65.37251953 84.18442871 64.46598633 83.92602539 63.53198242 C83.69471924 62.6828125 83.46341309 61.83364258 83.22509766 60.95874023 C83.02352051 60.22123535 82.82194336 59.48373047 82.61425781 58.72387695 C81.95731304 55.96911561 81.51657879 53.19845795 81.06103516 50.40405273 C79.91813019 50.41515579 78.77522522 50.42625885 77.59768677 50.43769836 C66.79924011 50.53928799 56.00089109 50.61412056 45.20207405 50.66311359 C39.65095139 50.68914875 34.10021615 50.72443581 28.54931641 50.78125 C23.18708389 50.83578641 17.82522279 50.86551897 12.46273422 50.87843895 C10.42228224 50.88764005 8.38184937 50.90560752 6.34155655 50.93270302 C-15.82053573 51.2151746 -15.82053573 51.2151746 -23.818573 43.61885071 C-30.03878905 37.02169802 -31.51328237 30.7335915 -31.27880859 21.81420898 C-30.51208688 14.12055312 -26.99355208 9.9565343 -21.32958984 4.94702148 C-14.40337295 0.47666907 -8.0238564 -0.03635839 0 0 Z " fill="#08090B" transform="translate(61.93896484375,81.595947265625)"/>
<path d="M0 0 C0.67958771 0.00021149 1.35917542 0.00042297 2.05935669 0.00064087 C13.77703294 0.03688978 24.7497127 1.24953754 36.0625 4.375 C36.7632666 4.55691895 37.4640332 4.73883789 38.18603516 4.92626953 C48.19209772 7.55031078 57.18894407 11.55580421 66.29052734 16.43457031 C67.8521498 17.26336195 69.43449976 18.052844 71.01953125 18.8359375 C98.59341761 32.80455343 121.55727083 61.0018884 131.94140625 89.890625 C137.12250165 105.99354171 140.48994339 121.18515859 140.4375 138.1875 C140.4362915 138.91287964 140.43508301 139.63825928 140.43383789 140.38562012 C140.26253536 178.42522655 125.96494475 210.85365245 100.0625 238.375 C99.464375 239.03757812 98.86625 239.70015625 98.25 240.3828125 C75.97969973 264.09300287 41.49856975 278.06372378 9.30029297 279.49804688 C-3.79714254 279.86390949 -16.17089973 279.3568854 -28.9375 276.375 C-30.77248047 275.97474609 -30.77248047 275.97474609 -32.64453125 275.56640625 C-68.06680528 267.07864091 -98.74916789 244.14701145 -117.9375 213.375 C-124.58181118 202.33358192 -129.84125007 190.99546852 -133.3203125 178.57714844 C-133.71932354 177.15346188 -134.13492701 175.73427622 -134.5703125 174.32128906 C-141.26181223 152.2880439 -140.73191492 123.29913948 -133.9375 101.375 C-133.72319336 100.68148437 -133.50888672 99.98796875 -133.28808594 99.2734375 C-121.71585884 63.29341263 -96.53539762 32.78516912 -62.97265625 15.40673828 C-51.02757435 9.35108616 -39.02771096 5.24113529 -25.9375 2.375 C-25.11386963 2.18808594 -24.29023926 2.00117188 -23.44165039 1.80859375 C-15.63320236 0.19399728 -7.95666331 -0.01029323 0 0 Z " fill="#08090B" transform="translate(611.9375,24.625)"/>
<path d="M0 0 C5.62658111 3.39939275 9.34594543 7.37912576 11 13.8125 C11.40954909 18.70641649 11.34980448 23.58967855 11.29296875 28.49609375 C11.28736582 29.92098034 11.28309902 31.34587275 11.28010559 32.77076721 C11.26871153 36.50105047 11.23929225 40.23097716 11.20599365 43.96112061 C11.17517458 47.77546365 11.1615751 51.58986492 11.14648438 55.40429688 C11.11441644 62.87385957 11.06328718 70.34312961 11 77.8125 C11.79656006 77.80361755 12.59312012 77.79473511 13.41381836 77.7855835 C20.94595805 77.70520596 28.47788776 77.64441871 36.01034546 77.60525131 C39.8822469 77.58443744 43.75379192 77.5562349 47.62548828 77.51074219 C51.36674468 77.46706071 55.10765974 77.44331633 58.84915161 77.43299103 C60.27163053 77.42563936 61.69409223 77.41128362 63.11642456 77.38957977 C71.13946085 77.27209913 77.22652375 77.26360594 84 81.8125 C88.63814211 86.54142611 89.34401348 90.7975684 89.5 97.375 C89.06121703 108.71585222 89.06121703 108.71585222 84.3125 113.51953125 C79.62186693 117.69224025 77.08621759 118.9381392 70.71435547 118.92602539 C70.07032776 118.92617142 69.42630005 118.92631744 68.76275635 118.9264679 C66.63086598 118.9257704 64.49906263 118.91798566 62.3671875 118.91015625 C60.89031014 118.90829149 59.41343216 118.90686786 57.93655396 118.90586853 C54.04687801 118.90204792 50.15723933 118.89222152 46.26757812 118.88116455 C42.29948429 118.87094064 38.33138445 118.86636881 34.36328125 118.86132812 C26.57550384 118.85059885 18.78775714 118.83352789 11 118.8125 C11.01110306 119.60906006 11.02220612 120.40562012 11.03364563 121.22631836 C11.13411728 128.75843778 11.21010058 136.29022916 11.25906086 143.82284546 C11.2850789 147.69485216 11.32033152 151.566302 11.37719727 155.43798828 C11.43179941 159.17926451 11.46147907 162.92000747 11.47438622 166.66165161 C11.48357599 168.08416125 11.50152147 169.50664395 11.52865028 170.92892456 C11.68049556 179.22482872 11.57804433 185.37141454 6 191.8125 C5.38125 192.59625 4.7625 193.38 4.125 194.1875 C-1.78151763 198.70424878 -9.88357022 198.73867546 -17 197.8125 C-22.98299281 195.46584804 -27.29157629 191.35322024 -30.08737183 185.55891418 C-31.15417492 182.34853428 -31.24039152 179.75175061 -31.22705078 176.36987305 C-31.22689972 175.08892258 -31.22674866 173.80797211 -31.22659302 172.48820496 C-31.2163813 171.10020795 -31.20594933 169.71221256 -31.1953125 168.32421875 C-31.1915795 166.89647113 -31.18873388 165.46872095 -31.18673706 164.04096985 C-31.17912318 160.29431001 -31.15949419 156.54780674 -31.1373291 152.8012085 C-31.11682214 148.97361366 -31.107725 145.14599338 -31.09765625 141.31835938 C-31.07624599 133.8163351 -31.04213741 126.31443954 -31 118.8125 C-31.81352936 118.82138245 -32.62705872 118.83026489 -33.46524048 118.8394165 C-41.14516535 118.91968162 -48.82488584 118.98052458 -56.50512123 119.01974869 C-60.45330373 119.04059247 -64.40113863 119.06885049 -68.34912109 119.11425781 C-72.16169001 119.15783152 -75.97392532 119.18166124 -79.78672409 119.19200897 C-81.23876571 119.19937981 -82.69078979 119.21377356 -84.14268875 119.23542023 C-86.18227333 119.26460976 -88.22049289 119.26844986 -90.26025391 119.26660156 C-91.99899277 119.27992523 -91.99899277 119.27992523 -93.77285767 119.29351807 C-99.24953702 118.47719779 -103.52592787 115.03101616 -107 110.8125 C-109.97009235 103.44107514 -110.75963774 94.50918013 -107.9375 86.9765625 C-104.73852112 81.74345031 -100.87744124 78.72537943 -95 76.8125 C-90.07308828 76.27154891 -85.1673598 76.34514604 -80.21875 76.421875 C-78.79529622 76.42934786 -77.37183206 76.43503585 -75.94836426 76.43902588 C-72.22618533 76.4542004 -68.50464413 76.49340921 -64.78271484 76.5378418 C-60.97502262 76.57897302 -57.16722599 76.59707473 -53.359375 76.6171875 C-45.90596123 76.65991345 -38.45307043 76.72806276 -31 76.8125 C-31.00888245 76.02846802 -31.01776489 75.24443604 -31.0269165 74.43664551 C-31.10730079 67.02223557 -31.16808465 59.60803905 -31.20724869 52.19330597 C-31.22806079 48.38193565 -31.25625997 44.57092754 -31.30175781 40.75976562 C-31.34544579 37.07686336 -31.36918499 33.39430792 -31.37950897 29.71116638 C-31.3868595 28.31101528 -31.40121298 26.91088164 -31.42292023 25.51087952 C-31.54182686 17.51904675 -31.44214067 11.59796461 -27 4.8125 C-25.18359375 2.97265625 -25.18359375 2.97265625 -23.4375 1.875 C-22.85871094 1.49472656 -22.27992188 1.11445312 -21.68359375 0.72265625 C-15.65130731 -2.53841739 -6.34622328 -2.48513611 0 0 Z " fill="#FCFCFC" transform="translate(623,66.1875)"/>
<path d="M0 0 C32.34 0 64.68 0 98 0 C98 20.13 98 40.26 98 61 C69.95 61 41.9 61 13 61 C10.69 50.44 8.38 39.88 6 29 C3.24114743 17.10452812 3.24114743 17.10452812 0.43969727 5.21948242 C0 3 0 3 0 0 Z " fill="#FEFEFE" transform="translate(350,229)"/>
<path d="M0 0 C1.08074295 0.00015106 2.1614859 0.00030212 3.27497864 0.00045776 C5.00804512 0.01594162 5.00804512 0.01594162 6.77612305 0.03173828 C7.96763474 0.03456818 9.15914642 0.03739807 10.38676453 0.04031372 C14.18722635 0.05149645 17.98745136 0.07659799 21.7878418 0.10205078 C24.36661443 0.11208303 26.94539077 0.12120845 29.52416992 0.12939453 C35.84130783 0.15142958 42.15830789 0.18488846 48.4753418 0.22705078 C48.60684128 0.83738159 48.73834076 1.4477124 48.87382507 2.07653809 C52.10206884 17.0607614 52.10206884 17.0607614 55.49487305 32.00830078 C55.64608612 32.66072754 55.79729919 33.3131543 55.95309448 33.98535156 C56.55088999 36.56383881 57.1493234 39.14213156 57.75927734 41.71777344 C58.21981591 43.66714051 58.6699783 45.61894974 59.11987305 47.57080078 C59.38131104 48.68648438 59.64274902 49.80216797 59.91210938 50.95166016 C60.4753418 54.22705078 60.4753418 54.22705078 60.4753418 61.22705078 C39.0253418 61.22705078 17.5753418 61.22705078 -4.5246582 61.22705078 C-6.1746582 55.94705078 -7.8246582 50.66705078 -9.5246582 45.22705078 C-10.19110352 43.20193359 -10.85754883 41.17681641 -11.54418945 39.09033203 C-18.57566653 17.57209091 -18.57566653 17.57209091 -16.5246582 9.22705078 C-12.9506617 2.41999823 -7.55035119 -0.03536464 0 0 Z " fill="#FBFBFC" transform="translate(247.524658203125,228.77294921875)"/>
<path d="M0 0 C25.08 0 50.16 0 76 0 C71 25 71 25 69.375 33.0625 C67.86172712 40.69764955 66.43444096 48.3496482 65 56 C43.55 56 22.1 56 0 56 C0 37.52 0 19.04 0 0 Z " fill="#FDFDFD" transform="translate(502,344)"/>
<path d="M0 0 C23.76 0 47.52 0 72 0 C72 18.48 72 36.96 72 56 C51.87 56 31.74 56 11 56 C9.741875 50.18375 8.48375 44.3675 7.1875 38.375 C6.35142721 34.51055904 6.35142721 34.51055904 5.51521301 30.64614868 C5.18362013 29.11177225 4.85278446 27.57723208 4.52250671 26.04257202 C3.71788065 22.3055502 2.90691793 18.57049712 2.06884766 14.84082031 C1.79476074 13.60686523 1.52067383 12.37291016 1.23828125 11.1015625 C0.99762939 10.03502441 0.75697754 8.96848633 0.5090332 7.86962891 C0 5 0 5 0 0 Z " fill="#FEFEFE" transform="translate(376,344)"/>
<path d="M0 0 C20.46 0 40.92 0 62 0 C65.37534842 10.12604525 65.37534842 10.12604525 66.25854492 14.21264648 C66.45852585 15.12646591 66.65850677 16.04028534 66.86454773 16.98179626 C67.06780167 17.93526443 67.2710556 18.8887326 67.48046875 19.87109375 C67.80704216 21.37640404 67.80704216 21.37640404 68.14021301 22.91212463 C68.5954253 25.01504499 69.04824925 27.11848366 69.4987793 29.22241211 C70.19093339 32.45352775 70.89075486 35.68291165 71.59179688 38.91210938 C72.03429916 40.96084144 72.47637198 43.00966632 72.91796875 45.05859375 C73.12729538 46.02623154 73.33662201 46.99386932 73.55229187 47.99082947 C73.74281631 48.88258377 73.93334076 49.77433807 74.12963867 50.69311523 C74.29823898 51.47871323 74.46683929 52.26431122 74.64054871 53.07371521 C75 55 75 55 75 57 C55.2 57 35.4 57 15 57 C12.69 48.09 10.38 39.18 8 30 C7.01 26.7 6.02 23.4 5 20 C4.09406638 16.83561215 3.19588577 13.67058097 2.3125 10.5 C2.08755859 9.70335937 1.86261719 8.90671875 1.63085938 8.0859375 C0 2.23665464 0 2.23665464 0 0 Z " fill="#FAFAFA" transform="translate(258,343)"/>
<path d="M0 0 C19.47 0 38.94 0 59 0 C57.87483842 10.12645426 57.87483842 10.12645426 56.80078125 14.3203125 C56.56383545 15.25738037 56.32688965 16.19444824 56.08276367 17.15991211 C55.82857666 18.13839111 55.57438965 19.11687012 55.3125 20.125 C55.04993408 21.15310791 54.78736816 22.18121582 54.5168457 23.24047852 C53.96498603 25.39592923 53.41017251 27.55062564 52.85253906 29.70458984 C51.99584824 33.01604823 51.14958497 36.33004643 50.3046875 39.64453125 C49.76623298 41.74234365 49.22719165 43.84000553 48.6875 45.9375 C48.43331299 46.93217285 48.17912598 47.9268457 47.91723633 48.95166016 C47.68029053 49.86351074 47.44334473 50.77536133 47.19921875 51.71484375 C46.99127686 52.52042725 46.78333496 53.32601074 46.5690918 54.15600586 C46 56 46 56 45 57 C43.2507128 57.09365006 41.49763746 57.11744438 39.74584961 57.11352539 C38.62476303 57.11344986 37.50367645 57.11337433 36.34861755 57.11329651 C34.51896202 57.10555458 34.51896202 57.10555458 32.65234375 57.09765625 C31.41078018 57.0962413 30.16921661 57.09482635 28.89002991 57.09336853 C25.58394509 57.08870591 22.27792854 57.07971497 18.97186279 57.06866455 C15.6003885 57.05844827 12.22890717 57.05387045 8.85742188 57.04882812 C2.23826225 57.03777395 -4.38086493 57.02101736 -11 57 C-10.50719086 51.44884691 -9.93359532 46.01715384 -8.73046875 40.56640625 C-8.48103516 39.42107422 -8.23160156 38.27574219 -7.97460938 37.09570312 C-7.71486328 35.92974609 -7.45511719 34.76378906 -7.1875 33.5625 C-4.73559841 22.38564991 -2.35754053 11.1983175 0 0 Z " fill="#F9F9F9" transform="translate(632,343)"/>
<path d="M0 0 C18.15 0 36.3 0 55 0 C50.77613636 19.71136364 50.77613636 19.71136364 49.0625 27.375 C48.70381836 29.03982422 48.70381836 29.03982422 48.33789062 30.73828125 C46.26487527 39.93831246 44.04694059 47.46772835 36 53 C33.15354383 53.92550933 30.58078503 54.12229643 27.59863281 54.11352539 C26.3077475 54.11341209 26.3077475 54.11341209 24.99078369 54.11329651 C24.07085632 54.10813522 23.15092896 54.10297394 22.203125 54.09765625 C20.77996979 54.09553383 20.77996979 54.09553383 19.32806396 54.09336853 C16.30201038 54.08777742 13.27603117 54.07522652 10.25 54.0625 C8.19661565 54.05748385 6.14323014 54.05292115 4.08984375 54.04882812 C-0.94013276 54.03781089 -5.97005378 54.02055233 -11 54 C-10.32512742 48.98974269 -9.46938923 44.03963362 -8.4765625 39.08203125 C-8.25629898 37.97428596 -8.25629898 37.97428596 -8.03158569 36.84416199 C-7.72157768 35.28840988 -7.41057769 33.73285514 -7.09863281 32.17749023 C-6.62992942 29.83711405 -6.16634277 27.49576413 -5.703125 25.15429688 C-5.39874994 23.63014591 -5.09407176 22.10605543 -4.7890625 20.58203125 C-4.65456696 19.90034378 -4.52007141 19.21865631 -4.38150024 18.51631165 C-3.1216502 12.27447076 -1.55037042 6.20148167 0 0 Z " fill="#FBFBFB" transform="translate(609,454)"/>
<path d="M0 0 C18.48 0 36.96 0 56 0 C58.54805019 10.19220075 61.04695729 20.34920773 63.29248047 30.60424805 C63.75853116 32.72634546 64.23273832 34.84652823 64.70703125 36.96679688 C65.00830639 38.33582891 65.30910628 39.70496563 65.609375 41.07421875 C65.87717773 42.28682373 66.14498047 43.49942871 66.42089844 44.7487793 C66.92802568 47.5959182 67.12107606 50.12036225 67 53 C60.55889398 53.10162708 54.1179956 53.17156052 47.67626953 53.21972656 C45.48608676 53.23981107 43.29595741 53.26708417 41.10595703 53.30175781 C37.95331624 53.35041409 34.80138596 53.37300078 31.6484375 53.390625 C30.67321136 53.41127014 29.69798523 53.43191528 28.69320679 53.45318604 C22.94631778 53.45507226 19.50190885 52.94823143 15 49 C11.05351855 43.47070513 9.63222362 37.67058455 8.0625 31.125 C7.55304773 29.08146488 7.04130519 27.03849945 6.52734375 24.99609375 C6.27452637 23.98788574 6.02170898 22.97967773 5.76123047 21.94091797 C4.46632939 16.93823086 2.98267046 11.99459666 1.47290039 7.05322266 C0 2.19149352 0 2.19149352 0 0 Z " fill="#FCFCFC" transform="translate(289,454)"/>
<path d="M0 0 C17.16 0 34.32 0 52 0 C51.40676313 5.93236866 50.86016466 11.32680181 49.6953125 17.08203125 C49.44136719 18.34466797 49.18742188 19.60730469 48.92578125 20.90820312 C48.66152344 22.19662109 48.39726563 23.48503906 48.125 24.8125 C47.74021484 26.72772461 47.74021484 26.72772461 47.34765625 28.68164062 C45.69769239 36.827819 43.87067222 44.89375373 42 53 C28.14 53 14.28 53 0 53 C0 35.51 0 18.02 0 0 Z " fill="#FDFDFD" transform="translate(502,454)"/>
<path d="M0 0 C16.17 0 32.34 0 49 0 C49 17.82 49 35.64 49 54 C36.79 54 24.58 54 12 54 C9.375 42.625 9.375 42.625 8.49902344 38.82470703 C7.09471521 32.73309413 5.68505696 26.64279535 4.265625 20.5546875 C3.99057129 19.37181152 3.71551758 18.18893555 3.43212891 16.97021484 C2.8997021 14.68106946 2.36555975 12.39232232 1.82958984 10.10400391 C1.58934082 9.06937012 1.3490918 8.03473633 1.1015625 6.96875 C0.88838379 6.05544922 0.67520508 5.14214844 0.45556641 4.20117188 C0 2 0 2 0 0 Z " fill="#FBFBFB" transform="translate(399,454)"/>
<path d="M0 0 C3.65652776 1.89845317 6.31077524 4.16226528 9 7.3125 C9.721875 8.116875 10.44375 8.92125 11.1875 9.75 C15.28211294 15.53893553 15.65494299 21.43040063 15 28.3125 C13.74066796 34.81023004 11.14364441 40.06823545 6 44.3125 C-0.96477484 48.85518143 -7.62201475 51.9109314 -16 50.3125 C-22.9002051 48.26967612 -29.4113756 44.45901993 -33.28515625 38.25390625 C-36.81625979 31.35623087 -38.25100396 24.82873795 -36.50390625 17.125 C-33.59725376 8.71705607 -28.93551195 3.33006044 -21 -0.6875 C-14.37599825 -2.89550058 -6.45338057 -2.69434071 0 0 Z " fill="#FAFBFB" transform="translate(592,671.6875)"/>
<path d="M0 0 C6.85698381 4.59288538 12.25936742 10.80970207 14 19 C15.18009121 27.12787821 12.46965345 33.82058647 8.375 40.75 C2.1360207 46.66061197 -3.37696886 49.58860043 -12.125 49.625 C-19.76599079 49.41657723 -24.69185305 48.23107543 -30.1796875 42.87109375 C-37.15340354 35.33898408 -38.65582926 30.11522376 -38.37109375 19.9921875 C-37.88263836 12.54889216 -34.33023782 8.00912222 -29 3.0625 C-21.34945583 -3.46205682 -8.99761167 -4.6073977 0 0 Z " fill="#FAFAFA" transform="translate(351,672)"/>
<path d="M0 0 C0.99 0 1.98 0 3 0 C3 2.64 3 5.28 3 8 C6.3 8 9.6 8 13 8 C13 8.99 13 9.98 13 11 C11.25 12.75 11.25 12.75 9 14 C6.75 13.6875 6.75 13.6875 5 13 C5.0825 13.7425 5.165 14.485 5.25 15.25 C4.92305529 18.84639183 3.65353618 19.6497251 1 22 C0.54625 22.721875 0.0925 23.44375 -0.375 24.1875 C-2.6856825 26.76479971 -4.62085494 26.78880343 -8 27 C-8.99 26.67 -9.98 26.34 -11 26 C-10.814375 26.556875 -10.62875 27.11375 -10.4375 27.6875 C-9.90194026 30.51831575 -10.088534 32.26560199 -11 35 C-12.8125 36.8125 -12.8125 36.8125 -15 38 C-16.32 38 -17.64 38 -19 38 C-19.144375 38.804375 -19.28875 39.60875 -19.4375 40.4375 C-20 43 -20 43 -21 44 C-22.99958364 44.04080783 -25.00045254 44.04254356 -27 44 C-27 43.34 -27 42.68 -27 42 C-27.66 42 -28.32 42 -29 42 C-29 41.01 -29 40.02 -29 39 C-30.98 39 -32.96 39 -35 39 C-35.9765625 32.9453125 -35.9765625 32.9453125 -36 31 C-35.34 30.34 -34.68 29.68 -34 29 C-34 29.66 -34 30.32 -34 31 C-31.69 31 -29.38 31 -27 31 C-26.7525 30.0925 -26.505 29.185 -26.25 28.25 C-24.93848989 24.84007371 -23.88352377 23.20504759 -21 21 C-19.68 21 -18.36 21 -17 21 C-17 21.66 -17 22.32 -17 23 C-16.01 23 -15.02 23 -14 23 C-14.04125 21.7625 -14.0825 20.525 -14.125 19.25 C-14.13658291 15.98362038 -13.8568702 13.7853053 -12 11 C-10.35 11 -8.7 11 -7 11 C-7.99 10.13375 -7.99 10.13375 -9 9.25 C-11 7 -11 7 -11 3 C-9.35 3 -7.7 3 -6 3 C-6 3.99 -6 4.98 -6 6 C-4.68 6 -3.36 6 -2 6 C-1.34 4.02 -0.68 2.04 0 0 Z " fill="#121315" transform="translate(355,177)"/>
<path d="M0 0 C0.50789063 0.39832031 1.01578125 0.79664063 1.5390625 1.20703125 C10.0705288 7.77338453 16.21457099 9.53593851 27 10 C27 10.33 27 10.66 27 11 C22.545 11.495 22.545 11.495 18 12 C18.33 12.99 18.66 13.98 19 15 C17 16 17 16 14 17 C14 16.34 14 15.68 14 15 C13.01 15.495 13.01 15.495 12 16 C12.495 16.45375 12.99 16.9075 13.5 17.375 C15 19 15 19 15 21 C15.66 21 16.32 21 17 21 C16.7216584 24.34009923 16.16222432 25.81319624 13.9375 28.375 C10.49053 30.28183447 8.61826241 30.45124382 4.80859375 29.73828125 C3 29 3 29 0.9375 26.3125 C-0.08025096 22.71644662 0.06156713 20.58310731 1 17 C1.66 17 2.32 17 3 17 C3 15.68 3 14.36 3 13 C2.34 13 1.68 13 1 13 C0.67 12.01 0.34 11.02 0 10 C0.66 9.34 1.32 8.68 2 8 C2.1490712 5.9254644 2.1490712 5.9254644 1 4 C0.34 4 -0.32 4 -1 4 C-1.66 4.66 -2.32 5.32 -3 6 C-3 4.68 -3 3.36 -3 2 C-2.01 1.34 -1.02 0.68 0 0 Z " fill="#131416" transform="translate(317,711)"/>
<path d="M0 0 C1.32 0.33 2.64 0.66 4 1 C4 1.99 4 2.98 4 4 C3.01 4.495 3.01 4.495 2 5 C2 6.65 2 8.3 2 10 C2.9075 9.67 3.815 9.34 4.75 9 C8 8 8 8 12 8 C11.52 12.56 11.52 12.56 9.375 14.375 C6.06071949 15.24717908 3.32887611 14.64016848 0 14 C0.20625 15.0725 0.4125 16.145 0.625 17.25 C0.98693582 20.86935819 1.08882678 22.14160546 -1 25 C-3.40545638 26.20272819 -4.94996953 26.10071472 -7.625 26.0625 C-8.85089844 26.04896484 -8.85089844 26.04896484 -10.1015625 26.03515625 C-10.72804688 26.02355469 -11.35453125 26.01195312 -12 26 C-12 25.01 -12 24.02 -12 23 C-12.66 23 -13.32 23 -14 23 C-14.08090971 21.37581255 -14.13914995 19.75048255 -14.1875 18.125 C-14.22230469 17.22007812 -14.25710938 16.31515625 -14.29296875 15.3828125 C-14.19628906 14.59648437 -14.09960938 13.81015625 -14 13 C-11.09907498 11.06604999 -10.10325263 10.69868059 -6.8125 10.375 C-5.554375 10.25125 -4.29625 10.1275 -3 10 C-3.061875 9.0925 -3.12375 8.185 -3.1875 7.25 C-2.98327924 3.71017358 -2.35448165 2.55068845 0 0 Z " fill="#131416" transform="translate(720,327)"/>
<path d="M0 0 C0.33 0 0.66 0 1 0 C1.95990763 4.86097225 2.18313936 9.50561512 2.1875 14.4375 C2.19974609 15.16259766 2.21199219 15.88769531 2.22460938 16.63476562 C2.23762586 21.46388183 1.52787035 25.41638894 0 30 C-0.86625 29.4740625 -0.86625 29.4740625 -1.75 28.9375 C-4.4323275 27.81986354 -5.29374754 28.15429611 -8 29 C-11.11257569 29 -13.10765685 28.82638376 -16 28 C-15.5153125 27.23558594 -15.030625 26.47117187 -14.53125 25.68359375 C-9.29362492 17.31346597 -4.5549148 8.75851968 0 0 Z " fill="#0E1010" transform="translate(767,231)"/>
<path d="M0 0 C0.556875 0.7425 1.11375 1.485 1.6875 2.25 C4.40089459 5.47673951 7.21024656 8.10512328 11 10 C13.09286161 10.12058055 15.18949778 10.17742678 17.28564453 10.20532227 C18.2516861 10.22017166 18.2516861 10.22017166 19.23724365 10.23532104 C21.36906235 10.26694499 23.50090335 10.29169687 25.6328125 10.31640625 C27.10969629 10.33697502 28.58657418 10.35797147 30.06344604 10.37937927 C33.95305611 10.43460799 37.84271937 10.4840137 41.73242188 10.53222656 C45.70056907 10.58243577 49.66863889 10.63812486 53.63671875 10.69335938 C61.42441367 10.80095072 69.21217286 10.90239348 77 11 C77 11.33 77 11.66 77 12 C60.17 12 43.34 12 26 12 C25.67 12.99 25.34 13.98 25 15 C20.25 16.125 20.25 16.125 18 15 C18 16.98 18 18.96 18 21 C17.34 21 16.68 21 16 21 C15.690625 21.639375 15.38125 22.27875 15.0625 22.9375 C14 25 14 25 13 26 C11.33382885 26.04063832 9.66611905 26.042721 8 26 C8.66 24.35 9.32 22.7 10 21 C10.99 21 11.98 21 13 21 C13 20.01 13 19.02 13 18 C11.68 18 10.36 18 9 18 C9 17.34 9 16.68 9 16 C7.68 16.33 6.36 16.66 5 17 C5 16.34 5 15.68 5 15 C5.99 14.34 6.98 13.68 8 13 C7.195625 12.87625 6.39125 12.7525 5.5625 12.625 C4.716875 12.41875 3.87125 12.2125 3 12 C2.67 11.34 2.34 10.68 2 10 C1.34 11.65 0.68 13.3 0 15 C-0.33 15 -0.66 15 -1 15 C-1 12.69 -1 10.38 -1 8 C-0.01 8 0.98 8 2 8 C1.34 7.34 0.68 6.68 0 6 C-1.24546405 3.50907189 -0.7767578 2.58919267 0 0 Z " fill="#212121" transform="translate(515,174)"/>
<path d="M0 0 C2.31 0 4.62 0 7 0 C7 0.66 7 1.32 7 2 C7.99 2.33 8.98 2.66 10 3 C10 3.66 10 4.32 10 5 C10.66 5 11.32 5 12 5 C12 5.66 12 6.32 12 7 C12.66 7 13.32 7 14 7 C14.36421725 12.46325879 14.36421725 12.46325879 12.8125 14.75 C10.61194403 16.26762481 8.55479428 17.21390945 6 18 C5.34 17.67 4.68 17.34 4 17 C3.67 17.66 3.34 18.32 3 19 C2.67 18.01 2.34 17.02 2 16 C-0.00016466 14.79117904 -0.00016466 14.79117904 -2 14 C-2.1799928 8.78020872 -1.97094808 4.92737019 0 0 Z " fill="#121315" transform="translate(642,402)"/>
<path d="M0 0 C0.33 0.66 0.66 1.32 1 2 C1.99 2 2.98 2 4 2 C4 2.66 4 3.32 4 4 C4.66 4 5.32 4 6 4 C4.62845496 6.95409701 3.01136276 9.44008376 1 12 C1.99 12 2.98 12 4 12 C4.33 11.01 4.66 10.02 5 9 C5.99 8.67 6.98 8.34 8 8 C8.33 8.99 8.66 9.98 9 11 C7.0371157 14.1708131 5.87464 15.74158364 2.25 16.8125 C1.5075 16.874375 0.765 16.93625 0 17 C0 18.65 0 20.3 0 22 C-0.99 22 -1.98 22 -3 22 C-5.72615718 17.32658769 -8.04805877 10.39001656 -7 5 C-4.77639103 2.89342308 -2.73477132 1.36738566 0 0 Z " fill="#131415" transform="translate(304,230)"/>
<path d="M0 0 C2.75159672 2.67722924 4.63671887 5.1250013 5 9 C4.875 11.625 4.875 11.625 4 14 C1.28667789 15.65814129 -0.39459262 16.0442981 -3.5625 15.8125 C-6.31401725 14.89532758 -7.89697269 14.00162348 -10 12 C-10.390625 9.51953125 -10.390625 9.51953125 -10.25 6.8125 C-10.21390625 5.91144531 -10.1778125 5.01039062 -10.140625 4.08203125 C-10.07101562 3.05142578 -10.07101562 3.05142578 -10 2 C-6.44035251 0.08975814 -4.08753479 -0.59609882 0 0 Z " fill="#121315" transform="translate(652,60)"/>
<path d="M0 0 C13.86 0 27.72 0 42 0 C42 0.66 42 1.32 42 2 C42.66 2 43.32 2 44 2 C44 2.66 44 3.32 44 4 C42.35 4.66 40.7 5.32 39 6 C38.505 4.515 38.505 4.515 38 3 C37.34 3 36.68 3 36 3 C35.67 4.65 35.34 6.3 35 8 C35.66 8.33 36.32 8.66 37 9 C37 9.99 37 10.98 37 12 C36.46375 12.12375 35.9275 12.2475 35.375 12.375 C32.5361714 13.12206016 29.77776798 14.05303364 27 15 C26.34 13.35 25.68 11.7 25 10 C24.01 10.66 23.02 11.32 22 12 C22.54916253 7.24059141 24.47211645 6.23346026 28 2 C14.14 1.505 14.14 1.505 0 1 C0 0.67 0 0.34 0 0 Z " fill="#2F3031" transform="translate(502,507)"/>
<path d="M0 0 C0.33 1.32 0.66 2.64 1 4 C0.195625 4.474375 -0.60875 4.94875 -1.4375 5.4375 C-3.84753488 6.76900154 -3.84753488 6.76900154 -5 8 C-1.04 8 2.92 8 7 8 C7.61538462 16.24615385 7.61538462 16.24615385 4.5 20.0625 C3.675 20.701875 2.85 21.34125 2 22 C1.01 21.67 0.02 21.34 -1 21 C-1 20.01 -1 19.02 -1 18 C-0.01 17.34 0.98 16.68 2 16 C2.72382467 13.94074861 2.72382467 13.94074861 3 12 C2.13375 12.515625 1.2675 13.03125 0.375 13.5625 C-3.42892507 15.18269031 -5.10084432 15.24064044 -9 14 C-11.32749345 10.50875983 -11.50299316 9.10777749 -11 5 C-9.375 2.625 -9.375 2.625 -7 1 C-3.8125 0.8125 -3.8125 0.8125 -1 1 C-0.67 0.67 -0.34 0.34 0 0 Z " fill="#131416" transform="translate(193,169)"/>
<path d="M0 0 C2.33944736 0.28730055 4.6739143 0.61936779 7 1 C7.185625 2.11375 7.37125 3.2275 7.5625 4.375 C8.036875 5.57125 8.51125 6.7675 9 8 C12.51400668 9.54086322 12.51400668 9.54086322 16 10 C15.34 11.65 14.68 13.3 14 15 C11.23723823 14.47731534 8.6739124 13.89130413 6 13 C6 13.66 6 14.32 6 15 C5.34 15 4.68 15 4 15 C3.67 14.34 3.34 13.68 3 13 C0.57498366 13.47153095 -1.81107261 13.94602074 -4.1875 14.625 C-6 15 -6 15 -8 14 C-7.67 12.68 -7.34 11.36 -7 10 C-5.68 9.67 -4.36 9.34 -3 9 C-2.855625 8.4225 -2.71125 7.845 -2.5625 7.25 C-2.2840625 6.13625 -2.2840625 6.13625 -2 5 C-1.7525 3.9171875 -1.7525 3.9171875 -1.5 2.8125 C-1 1 -1 1 0 0 Z " fill="#101113" transform="translate(330,539)"/>
<path d="M0 0 C0 0.99 0 1.98 0 3 C-0.99 3.66 -1.98 4.32 -3 5 C-3.33 5.99 -3.66 6.98 -4 8 C-3.484375 7.67 -2.96875 7.34 -2.4375 7 C0.84447094 5.65355038 3.48432783 5.74431475 7 6 C7.99 6.66 8.98 7.32 10 8 C10.40843923 10.71203652 10.13336867 13.2437142 10 16 C9.34 16 8.68 16 8 16 C8 16.66 8 17.32 8 18 C5.64561267 19.42944945 4.51967567 20.08661261 1.75 19.625 C0.88375 19.315625 0.88375 19.315625 0 19 C0 18.01 0 17.02 0 16 C0.99 16 1.98 16 3 16 C3 15.34 3 14.68 3 14 C3.99 14 4.98 14 6 14 C5.67 13.34 5.34 12.68 5 12 C3.783125 12.20625 2.56625 12.4125 1.3125 12.625 C-2.34806773 13.09963844 -4.67611512 12.76581384 -8 11 C-8.36334661 3.61195219 -8.36334661 3.61195219 -6.8125 1 C-4.44004321 -0.30894168 -2.6664882 -0.21620175 0 0 Z " fill="#141517" transform="translate(488,384)"/>
<path d="M0 0 C2.64 0.66 5.28 1.32 8 2 C7.67 3.32 7.34 4.64 7 6 C10.55722863 7.18574288 13.37776544 7.11990193 17.13354492 7.11352539 C18.21684837 7.11374443 18.21684837 7.11374443 19.32203674 7.1139679 C21.70821134 7.11327145 24.09430779 7.1054916 26.48046875 7.09765625 C28.1352789 7.09579112 29.79008961 7.09436766 31.44490051 7.09336853 C35.79981003 7.08955085 40.15468618 7.07972695 44.50958252 7.06866455 C48.95364938 7.05843433 53.39772163 7.05386745 57.84179688 7.04882812 C66.56121323 7.03810402 75.28060246 7.02103657 84 7 C84 7.33 84 7.66 84 8 C60.24 8 36.48 8 12 8 C12.33 10.97 12.66 13.94 13 17 C11 15.625 11 15.625 9 14 C9 13.34 9 12.68 9 12 C8.34 12 7.68 12 7 12 C6.34 11.34 5.68 10.68 5 10 C4.154375 9.7525 3.30875 9.505 2.4375 9.25 C1.633125 8.8375 0.82875 8.425 0 8 C-1.47368421 2.94736842 -1.47368421 2.94736842 0 0 Z " fill="#58595A" transform="translate(364,336)"/>
<path d="M0 0 C1.33333333 0.66666667 2.66666667 1.33333333 4 2 C4 2.66 4 3.32 4 4 C4.66 4.33 5.32 4.66 6 5 C5.34 6.65 4.68 8.3 4 10 C4.556875 10.0825 5.11375 10.165 5.6875 10.25 C8.82238338 11.26671893 10.67448903 12.67448903 13 15 C13.5 17.625 13.5 17.625 13 20 C12.01 20.66 11.02 21.32 10 22 C10 22.66 10 23.32 10 24 C10.99 24.33 11.98 24.66 13 25 C12.67 26.98 12.34 28.96 12 31 C8.3123489 26.83171123 6.10391409 22.44593793 3.8125 17.4375 C3.45736328 16.68275391 3.10222656 15.92800781 2.73632812 15.15039062 C-1.50432422 6.01729687 -1.50432422 6.01729687 0 0 Z M3 10 C4 12 4 12 4 12 Z " fill="#0C0D0F" transform="translate(483,207)"/>
<path d="M0 0 C2.22490619 2.05524674 3.6475461 3.93424942 4.97265625 6.65234375 C5.31490234 7.34650391 5.65714844 8.04066406 6.00976562 8.75585938 C6.35716797 9.47580078 6.70457031 10.19574219 7.0625 10.9375 C7.41376953 11.65357422 7.76503906 12.36964844 8.12695312 13.10742188 C8.78281078 14.44517311 9.43618443 15.78414732 10.08618164 17.12475586 C11.04390695 19.09010134 12.01935113 21.0460064 13 23 C12.01 23 11.02 23 10 23 C9.67 22.67 9.34 22.34 9 22 C8.34 22.66 7.68 23.32 7 24 C5 21 5 21 5 18 C3.02 17.67 1.04 17.34 -1 17 C-1.33 17.66 -1.66 18.32 -2 19 C-3 18 -3 18 -3.1875 15.5625 C-3 13 -3 13 -1 11 C-1.165 10.071875 -1.33 9.14375 -1.5 8.1875 C-2.05169781 4.67042645 -1.56488747 3.12977494 0 0 Z " fill="#151617" transform="translate(458,231)"/>
<path d="M0 0 C19.47 0 38.94 0 59 0 C59 0.33 59 0.66 59 1 C52.73 1.33 46.46 1.66 40 2 C39.67 2.99 39.34 3.98 39 5 C40.97536745 4.65213292 40.97536745 4.65213292 43 4 C43.33 3.34 43.66 2.68 44 2 C45.98 2 47.96 2 50 2 C49.34 2.33 48.68 2.66 48 3 C47.855625 3.639375 47.71125 4.27875 47.5625 4.9375 C47 7 47 7 44 9 C38.65454545 9.32727273 38.65454545 9.32727273 36 8 C36 7.34 36 6.68 36 6 C35.34 6 34.68 6 34 6 C33.505 4.02 33.505 4.02 33 2 C22.11 1.67 11.22 1.34 0 1 C0 0.67 0 0.34 0 0 Z " fill="#3A3B3D" transform="translate(274,400)"/>
<path d="M0 0 C2.1519437 3.22791555 2.20086443 4.28400809 2 8 C4.97 8 7.94 8 11 8 C11 8.99 11 9.98 11 11 C8.64046906 13.35953094 7.22104383 13.49141413 4 14 C4 15.32 4 16.64 4 18 C2.68 18 1.36 18 0 18 C-0.33 17.01 -0.66 16.02 -1 15 C-1.66 15 -2.32 15 -3 15 C-3 14.34 -3 13.68 -3 13 C-3.99 12.67 -4.98 12.34 -6 12 C-5.01 12 -4.02 12 -3 12 C-2.95101562 11.21753906 -2.90203125 10.43507813 -2.8515625 9.62890625 C-2.77679687 8.61699219 -2.70203125 7.60507812 -2.625 6.5625 C-2.55539062 5.55316406 -2.48578125 4.54382813 -2.4140625 3.50390625 C-2.27742187 2.67761719 -2.14078125 1.85132813 -2 1 C-1.34 0.67 -0.68 0.34 0 0 Z " fill="#141517" transform="translate(571,477)"/>
<path d="M0 0 C1.67542976 0.28604898 3.34385343 0.61781233 5 1 C5 1.66 5 2.32 5 3 C5.66 3 6.32 3 7 3 C6.625 4.9375 6.625 4.9375 6 7 C5.01 7.495 5.01 7.495 4 8 C3.67 8.99 3.34 9.98 3 11 C4.32 10.67 5.64 10.34 7 10 C7 9.01 7 8.02 7 7 C7.99 7 8.98 7 10 7 C9.25 12.75 9.25 12.75 7 15 C2.66356399 15.31537716 0.67346771 15.44897847 -3 13 C-2.69240822 11.02006459 -2.3787932 9.04106401 -2.0625 7.0625 C-1.88847656 5.96035156 -1.71445312 4.85820312 -1.53515625 3.72265625 C-1 1 -1 1 0 0 Z " fill="#131414" transform="translate(635,241)"/>
<path d="M0 0 C0.99 0.33 1.98 0.66 3 1 C3 1.99 3 2.98 3 4 C3.721875 4.28875 4.44375 4.5775 5.1875 4.875 C7.02663658 5.61065463 8.860319 6.36013354 10.6875 7.125 C12.89967791 8.11796403 12.89967791 8.11796403 15 8 C15 7.34 15 6.68 15 6 C17.31 6.33 19.62 6.66 22 7 C21.67 8.65 21.34 10.3 21 12 C15.5610835 12.21755666 11.12919186 12.10428384 6 10 C5.67 10.66 5.34 11.32 5 12 C5 10.68 5 9.36 5 8 C4.34 7.34 3.68 6.68 3 6 C3 6.66 3 7.32 3 8 C2.34 8 1.68 8 1 8 C0.67 9.32 0.34 10.64 0 12 C-0.66 12 -1.32 12 -2 12 C-1 3.42857143 -1 3.42857143 0 0 Z " fill="#0F1012" transform="translate(690,348)"/>
<path d="M0 0 C0.50789063 0.39832031 1.01578125 0.79664063 1.5390625 1.20703125 C10.0705288 7.77338453 16.21457099 9.53593851 27 10 C27 10.33 27 10.66 27 11 C22.545 11.495 22.545 11.495 18 12 C18.33 12.99 18.66 13.98 19 15 C17 16 17 16 14 17 C14 16.34 14 15.68 14 15 C13.278125 14.9175 12.55625 14.835 11.8125 14.75 C8.31452289 13.8172061 6.59037651 12.52220871 4 10 C2.1875 6.75 2.1875 6.75 1 4 C0.34 4 -0.32 4 -1 4 C-1.66 4.66 -2.32 5.32 -3 6 C-3 4.68 -3 3.36 -3 2 C-2.01 1.34 -1.02 0.68 0 0 Z " fill="#0A0B0C" transform="translate(317,711)"/>
<path d="M0 0 C-3.63628809 1.21209603 -7.01984971 1.19247249 -10.80859375 1.24609375 C-12.37565674 1.27902675 -13.9427139 1.31223849 -15.50976562 1.34570312 C-17.97627833 1.39313134 -20.44276645 1.43758374 -22.90942383 1.47680664 C-25.29272653 1.51656406 -27.67555394 1.56809124 -30.05859375 1.62109375 C-31.16188271 1.63371498 -31.16188271 1.63371498 -32.28746033 1.64659119 C-36.06512689 1.73760636 -38.72815395 2.10393242 -42 4 C-44.25 3.625 -44.25 3.625 -46 3 C-46 2.34 -46 1.68 -46 1 C-46.66 1 -47.32 1 -48 1 C-48 1.99 -48 2.98 -48 4 C-50 5.6875 -50 5.6875 -52 7 C-52 6.01 -52 5.02 -52 4 C-54.97 3.505 -54.97 3.505 -58 3 C-58 2.01 -58 1.02 -58 0 C-50.38296049 -0.16826793 -42.76577821 -0.32815062 -35.1484375 -0.48217773 C-32.55659999 -0.5355792 -29.96480143 -0.5909071 -27.37304688 -0.64819336 C-23.64982502 -0.73015556 -19.92651851 -0.80521101 -16.203125 -0.87890625 C-15.04258606 -0.90594131 -13.88204712 -0.93297638 -12.68634033 -0.96083069 C-11.06511261 -0.99097511 -11.06511261 -0.99097511 -9.41113281 -1.02172852 C-8.46071106 -1.04171402 -7.51028931 -1.06169952 -6.53106689 -1.08229065 C-4.1856424 -1.00603565 -2.23941306 -0.67195963 0 0 Z " fill="#141517" transform="translate(166,84)"/>
<path d="M0 0 C2.02267375 2.62198449 3.01921352 4.21224581 2.9375 7.5625 C1.77120511 10.59486671 0.63799207 12.09478351 -2 14 C-4.75 13.75 -4.75 13.75 -7 13 C-7 12.34 -7 11.68 -7 11 C-5.7934375 10.2884375 -5.7934375 10.2884375 -4.5625 9.5625 C-1.7081924 8.20016328 -1.7081924 8.20016328 -1 5 C-1.9075 5.33 -2.815 5.66 -3.75 6 C-7 7 -7 7 -11 7 C-11.33 5.02 -11.66 3.04 -12 1 C-10.37512529 0.83211627 -8.75009558 0.66573213 -7.125 0.5 C-6.22007812 0.4071875 -5.31515625 0.314375 -4.3828125 0.21875 C-2 0 -2 0 0 0 Z " fill="#151618" transform="translate(378,680)"/>
<path d="M0 0 C1.98 0.495 1.98 0.495 4 1 C4.33 2.65 4.66 4.3 5 6 C7.31 6.66 9.62 7.32 12 8 C11.8125 9.875 11.8125 9.875 11 12 C8.4375 13.25 8.4375 13.25 6 14 C6.33 15.65 6.66 17.3 7 19 C6.34 19.33 5.68 19.66 5 20 C3.95983203 17.79906488 2.94322969 15.59161931 1.9375 13.375 C1.49567383 12.44880859 1.49567383 12.44880859 1.04492188 11.50390625 C-0.86002584 7.24578783 -1.21221906 4.50252793 0 0 Z " fill="#1C1C1C" transform="translate(505,712)"/>
<path d="M0 0 C2 2 2 2 2.5 5.8125 C2.44894441 8.35599648 2.28667424 9.61294456 0.76171875 11.671875 C-0.8125 13.0625 -0.8125 13.0625 -4 15 C-4.99 14.67 -5.98 14.34 -7 14 C-7 13.34 -7 12.68 -7 12 C-7.66 12 -8.32 12 -9 12 C-9 11.34 -9 10.68 -9 10 C-10.32 9.67 -11.64 9.34 -13 9 C-11.783125 8.62875 -10.56625 8.2575 -9.3125 7.875 C-4.74831438 6.19687136 -2.78567004 3.91734849 0 0 Z " fill="#111214" transform="translate(631,254)"/>
<path d="M0 0 C1.8871875 0.061875 1.8871875 0.061875 3.8125 0.125 C5.26842417 7.28329384 5.26842417 7.28329384 3.1875 11.125 C0.8125 13.125 0.8125 13.125 -1.9375 13.4375 C-3.05125 13.2828125 -3.05125 13.2828125 -4.1875 13.125 C-3.5275 11.475 -2.8675 9.825 -2.1875 8.125 C-1.1975 8.125 -0.2075 8.125 0.8125 8.125 C0.8125 7.135 0.8125 6.145 0.8125 5.125 C-0.5075 5.125 -1.8275 5.125 -3.1875 5.125 C-3.1875 4.465 -3.1875 3.805 -3.1875 3.125 C-4.5075 3.455 -5.8275 3.785 -7.1875 4.125 C-7.1875 3.465 -7.1875 2.805 -7.1875 2.125 C-4.09861478 0.06574319 -3.47814073 -0.1140374 0 0 Z " fill="#151617" transform="translate(527.1875,186.875)"/>
<path d="M0 0 C-0.33 0.66 -0.66 1.32 -1 2 C19.13 1.67 39.26 1.34 60 1 C60 1.99 60 2.98 60 4 C38.55 3.67 17.1 3.34 -5 3 C-5.33 3.66 -5.66 4.32 -6 5 C-6 3.35 -6 1.7 -6 0 C-3 -1 -3 -1 0 0 Z " fill="#020202" transform="translate(262,340)"/>
<path d="M0 0 C0.53625 0.268125 1.0725 0.53625 1.625 0.8125 C1.625 1.4725 1.625 2.1325 1.625 2.8125 C0.635 3.4725 -0.355 4.1325 -1.375 4.8125 C-2.09882467 6.87175139 -2.09882467 6.87175139 -2.375 8.8125 C-1.715 9.1425 -1.055 9.4725 -0.375 9.8125 C0.6444119 10.79270375 1.64746356 11.79053008 2.625 12.8125 C-2.6702381 14.13630952 -2.6702381 14.13630952 -5.6875 12.75 C-8.06097209 10.02490241 -8.51960879 8.42771971 -8.375 4.8125 C-3.70450392 -0.29246084 -3.70450392 -0.29246084 0 0 Z " fill="#131416" transform="translate(360.375,341.1875)"/>
<path d="M0 0 C3 1 3 1 5 3 C5.99 3.66 6.98 4.32 8 5 C5.96123051 5.81974263 3.91883925 6.6304807 1.875 7.4375 C0.16957031 8.11619141 0.16957031 8.11619141 -1.5703125 8.80859375 C-4.74206741 9.91039927 -7.67942748 10.56095774 -11 11 C-9.51182931 6.68430499 -6.94355538 5.93153733 -3 4 C-1.14684743 1.95053601 -1.14684743 1.95053601 0 0 Z " fill="#0F1012" transform="translate(662,549)"/>
<path d="M0 0 C0.33 0.66 0.66 1.32 1 2 C0.01 2 -0.98 2 -2 2 C-3.52299523 4.93720508 -4.80100302 7.9168649 -6 11 C-6.66 11 -7.32 11 -8 11 C-8.33 10.34 -8.66 9.68 -9 9 C-12.63 9 -16.26 9 -20 9 C-17.78772032 6.78772032 -16.07123506 6.04232904 -13.1875 4.875 C-12.33542969 4.52179687 -11.48335937 4.16859375 -10.60546875 3.8046875 C-7.91980708 2.97523277 -5.79210081 2.84961755 -3 3 C-3 2.34 -3 1.68 -3 1 C-2.01 0.67 -1.02 0.34 0 0 Z " fill="#121314" transform="translate(252,508)"/>
<path d="M0 0 C4.23429756 1.31061591 8.07407404 2.94356259 12 5 C11.67 6.65 11.34 8.3 11 10 C10.34 10 9.68 10 9 10 C8.67 9.67 8.34 9.34 8 9 C5.94603274 9.40929986 5.94603274 9.40929986 4 10 C3.87625 9.360625 3.7525 8.72125 3.625 8.0625 C3.315625 7.0415625 3.315625 7.0415625 3 6 C2.34 5.67 1.68 5.34 1 5 C1 4.34 1 3.68 1 3 C0.67 2.01 0.34 1.02 0 0 Z " fill="#181919" transform="translate(667,36)"/>
<path d="M0 0 C0.66 0.33 1.32 0.66 2 1 C0.92598892 3.91517292 0.22189824 5.77810176 -2 8 C-3.72117118 8.74692334 -5.44370648 9.49130015 -7.1796875 10.203125 C-9.58948868 11.25805942 -11.78356859 12.58954365 -14 14 C-14.99 13.34 -15.98 12.68 -17 12 C-16.27554688 11.55269531 -15.55109375 11.10539062 -14.8046875 10.64453125 C-9.5678878 7.36978584 -4.61175196 4.11318418 0 0 Z " fill="#E7E7E7" transform="translate(702,271)"/>
<path d="M0 0 C2.16874252 0.50603992 3.99967627 0.99983813 6 2 C5.67 4.31 5.34 6.62 5 9 C5.99 9.33 6.98 9.66 8 10 C7.67 11.98 7.34 13.96 7 16 C3.27993174 11.881353 0.69175645 7.28284682 -1 2 C-0.67 1.34 -0.34 0.68 0 0 Z " fill="#1D1D1D" transform="translate(488,222)"/>
<path d="M0 0 C4.62 0 9.24 0 14 0 C13.34 1.65 12.68 3.3 12 5 C5.375 6.25 5.375 6.25 2 4 C2 3.34 2 2.68 2 2 C1.34 2 0.68 2 0 2 C0 1.34 0 0.68 0 0 Z " fill="#151618" transform="translate(652,402)"/>
<path d="M0 0 C0.99 0 1.98 0 3 0 C3.12375 0.639375 3.2475 1.27875 3.375 1.9375 C3.684375 2.9584375 3.684375 2.9584375 4 4 C4.66 4.33 5.32 4.66 6 5 C5.34 5 4.68 5 4 5 C3.67 5.99 3.34 6.98 3 8 C1.68 7.67 0.36 7.34 -1 7 C-0.67 4.69 -0.34 2.38 0 0 Z M-3 7 C-1 8 -1 8 0 9 C0.34892324 13.07077118 -0.58595686 16.19975907 -2 20 C-2.33 20 -2.66 20 -3 20 C-3.19466332 18.20909747 -3.38051213 16.41723495 -3.5625 14.625 C-3.66691406 13.62726563 -3.77132812 12.62953125 -3.87890625 11.6015625 C-4 9 -4 9 -3 7 Z " fill="#141515" transform="translate(638,72)"/>
<path d="M0 0 C0.66 0.33 1.32 0.66 2 1 C1.81640625 2.828125 1.81640625 2.828125 1 5 C-1.28515625 6.484375 -1.28515625 6.484375 -4.0625 7.75 C-5.44115234 8.39195312 -5.44115234 8.39195312 -6.84765625 9.046875 C-7.55792969 9.36140625 -8.26820313 9.6759375 -9 10 C-9.66 9.34 -10.32 8.68 -11 8 C-10.01 7.67 -9.02 7.34 -8 7 C-8.33 6.01 -8.66 5.02 -9 4 C-7.54618103 3.30300448 -6.08677047 2.61766134 -4.625 1.9375 C-3.40683594 1.36322266 -3.40683594 1.36322266 -2.1640625 0.77734375 C-1.09285156 0.39255859 -1.09285156 0.39255859 0 0 Z " fill="#0E0F11" transform="translate(683,280)"/>
<path d="M0 0 C2 3 2 3 2 5 C2.99 5.33 3.98 5.66 5 6 C4.01 8.64 3.02 11.28 2 14 C0.68 13.67 -0.64 13.34 -2 13 C-1.85851011 11.3954444 -1.71164314 9.79136233 -1.5625 8.1875 C-1.48128906 7.29417969 -1.40007813 6.40085937 -1.31640625 5.48046875 C-1 3 -1 3 0 0 Z " fill="#1B1C1E" transform="translate(546,494)"/>
<path d="M0 0 C5.60120371 2.04471126 10.56677932 3.86232737 15 8 C14.01 8.495 14.01 8.495 13 9 C12.0925 8.505 11.185 8.01 10.25 7.5 C6.54038747 5.78787114 4.87733275 5.98450809 1 7 C0.01 5.68 -0.98 4.36 -2 3 C-1.34 2.01 -0.68 1.02 0 0 Z " fill="#151618" transform="translate(609,622)"/>
<path d="M0 0 C-0.8125 1.9375 -0.8125 1.9375 -2 4 C-5.44307679 5.14769226 -8.40094235 5 -12 5 C-12 4.34 -12 3.68 -12 3 C-11.34 2.67 -10.68 2.34 -10 2 C-9.71125 1.34 -9.4225 0.68 -9.125 0 C-8 -2 -8 -2 -6.125 -2.9375 C-3.23179718 -3.0225942 -2.10832763 -1.88243538 0 0 Z " fill="#171819" transform="translate(683,543)"/>
<path d="M0 0 C5.80246914 3.45679012 5.80246914 3.45679012 6.75 6.0625 C6.8325 6.701875 6.915 7.34125 7 8 C7.99 9.485 7.99 9.485 9 11 C8.01 11.99 7.02 12.98 6 14 C5.34 12.02 4.68 10.04 4 8 C3.01 8.33 2.02 8.66 1 9 C1 8.01 1 7.02 1 6 C0.34 6 -0.32 6 -1 6 C-1.042721 4.33388095 -1.04063832 2.66617115 -1 1 C-0.67 0.67 -0.34 0.34 0 0 Z " fill="#18181A" transform="translate(687,520)"/>
<path d="M0 0 C1.32 0 2.64 0 4 0 C4 0.66 4 1.32 4 2 C4.61875 2.061875 5.2375 2.12375 5.875 2.1875 C8 3 8 3 9.3125 5.375 C10 8 10 8 9 11 C8.01 10.67 7.02 10.34 6 10 C6 9.34 6 8.68 6 8 C5.34 8 4.68 8 4 8 C4 7.34 4 6.68 4 6 C3.34 6 2.68 6 2 6 C2 5.01 2 4.02 2 3 C1.34 3 0.68 3 0 3 C0 2.01 0 1.02 0 0 Z " fill="#151618" transform="translate(720,318)"/>
<path d="M0 0 C1 3 1 3 1 6 C1.53328026 8.07158869 2.1400246 10.11230375 2.7578125 12.16015625 C2.83773437 12.76730469 2.91765625 13.37445313 3 14 C2.34 14.66 1.68 15.32 1 16 C0.4121875 14.4221875 0.4121875 14.4221875 -0.1875 12.8125 C-1.76402557 9.08341068 -3.96895425 6.70336513 -7 4 C-6.67 3.01 -6.34 2.02 -6 1 C-5.34 1 -4.68 1 -4 1 C-3.67 1.66 -3.34 2.32 -3 3 C-2.01 2.01 -1.02 1.02 0 0 Z " fill="#161616" transform="translate(632,64)"/>
<path d="M0 0 C4.4361658 1.44433305 8.82092168 2.91046084 13 5 C13 6.32 13 7.64 13 9 C7.20644472 7.67231025 2.9000081 5.33455096 -2 2 C-1.34 1.34 -0.68 0.68 0 0 Z " fill="#161718" transform="translate(298,761)"/>
<path d="M0 0 C1.32 0 2.64 0 4 0 C3.8125 1.875 3.8125 1.875 3 4 C0.4375 5.25 0.4375 5.25 -2 6 C-1.67 7.65 -1.34 9.3 -1 11 C-1.99 11.495 -1.99 11.495 -3 12 C-6.07692308 6.70769231 -6.07692308 6.70769231 -5.6875 3.125 C-5.460625 2.42375 -5.23375 1.7225 -5 1 C-4.01 1.33 -3.02 1.66 -2 2 C-1.34 1.34 -0.68 0.68 0 0 Z " fill="#141415" transform="translate(513,720)"/>
<path d="M0 0 C1.32 0.33 2.64 0.66 4 1 C4 1.66 4 2.32 4 3 C4.66 3.33 5.32 3.66 6 4 C5.01 4.99 4.02 5.98 3 7 C-0.63 6.01 -4.26 5.02 -8 4 C-5 1 -5 1 -2.3125 0.8125 C-1.549375 0.874375 -0.78625 0.93625 0 1 C0 0.67 0 0.34 0 0 Z " fill="#F1F1F1" transform="translate(609,616)"/>
<path d="M0 0 C2.18975773 3.28463659 2.99806563 6.20696275 4 10 C2.68 9.67 1.36 9.34 0 9 C-0.66 10.32 -1.32 11.64 -2 13 C-5.125 6.375 -5.125 6.375 -4 3 C-1.9375 1.3125 -1.9375 1.3125 0 0 Z " fill="#1A1A1A" transform="translate(453,216)"/>
<path d="M0 0 C4.54075781 4.14010271 7.71842138 8.82390176 11 14 C9.33333333 14 7.66666667 14 6 14 C6 13.34 6 12.68 6 12 C5.01 11.67 4.02 11.34 3 11 C1.53295446 7.41388869 0.67215325 3.8088684 0 0 Z " fill="#0F0F0F" transform="translate(638,641)"/>
<path d="M0 0 C1.32 0.99 2.64 1.98 4 3 C1.03 5.97 -1.94 8.94 -5 12 C-5.66 11.34 -6.32 10.68 -7 10 C-7 9.34 -7 8.68 -7 8 C-6.34 7.67 -5.68 7.34 -5 7 C-4.27840576 5.35636866 -3.60648579 3.68949614 -3 2 C-2.01 2 -1.02 2 0 2 C0 1.34 0 0.68 0 0 Z " fill="#111111" transform="translate(713,255)"/>
<path d="M0 0 C2.87310791 3.32588996 3.97084181 6.55462692 5.1875 10.75 C5.70376953 12.50570312 5.70376953 12.50570312 6.23046875 14.296875 C6.48441406 15.18890625 6.73835937 16.0809375 7 17 C6.01 17.66 5.02 18.32 4 19 C3.32263519 16.96185767 2.65856466 14.91929445 2 12.875 C1.62875 11.73804688 1.2575 10.60109375 0.875 9.4296875 C0.03088051 6.12104059 -0.16509276 3.39471984 0 0 Z " fill="#171717" transform="translate(168,218)"/>
<path d="M0 0 C1.52519276 0.08937803 3.04681929 0.24537146 4.5625 0.4375 C5.80193359 0.59025391 5.80193359 0.59025391 7.06640625 0.74609375 C7.70449219 0.82988281 8.34257812 0.91367187 9 1 C7.73786958 4.78639125 6.34654649 5.04104596 3 7 C2.01 8.485 2.01 8.485 1 10 C0.63883954 8.5225254 0.28624952 7.04295325 -0.0625 5.5625 C-0.25972656 4.73878906 -0.45695313 3.91507812 -0.66015625 3.06640625 C-0.82837891 2.04353516 -0.82837891 2.04353516 -1 1 C-0.67 0.67 -0.34 0.34 0 0 Z " fill="#1A1B1D" transform="translate(241,475)"/>
<path d="M0 0 C2.3125 0.0625 2.3125 0.0625 5 1 C6.88042897 4.50148842 8 7.0080306 8 11 C7.34 11 6.68 11 6 11 C5.34 9.68 4.68 8.36 4 7 C2.35 7 0.7 7 -1 7 C-1.33 6.01 -1.66 5.02 -2 4 C-1.34 4 -0.68 4 0 4 C0 2.68 0 1.36 0 0 Z " fill="#131514" transform="translate(179,96)"/>
<path d="M0 0 C0 0.66 0 1.32 0 2 C1.32 1.34 2.64 0.68 4 0 C4 3 4 3 2.57421875 4.640625 C1.95160156 5.17171875 1.32898438 5.7028125 0.6875 6.25 C-0.23482422 7.06210937 -0.23482422 7.06210937 -1.17578125 7.890625 C-1.77777344 8.25671875 -2.37976563 8.6228125 -3 9 C-3.99 8.67 -4.98 8.34 -6 8 C-5.62403791 5.21788056 -5.32681541 3.4120716 -3.5625 1.1875 C-2 0 -2 0 0 0 Z " fill="#121212" transform="translate(630,752)"/>
<path d="M0 0 C0.99 0 1.98 0 3 0 C4.34152439 4.02457316 4.27060777 7.8055795 4 12 C3.01 12.66 2.02 13.32 1 14 C-1.38297872 5.21276596 -1.38297872 5.21276596 -1 1 C-0.67 0.67 -0.34 0.34 0 0 Z " fill="#202121" transform="translate(298,234)"/>
<path d="M0 0 C1.45922693 0.11409593 2.91740598 0.24165544 4.375 0.375 C5.59316406 0.47941406 5.59316406 0.47941406 6.8359375 0.5859375 C9 1 9 1 11 3 C10.01 4.32 9.02 5.64 8 7 C4.27566618 5.7874262 0.62197194 4.49140021 -3 3 C-2.01 2.67 -1.02 2.34 0 2 C0 1.34 0 0.68 0 0 Z " fill="#EFF0F0" transform="translate(669,33)"/>
<path d="M0 0 C4.95 0.33 9.9 0.66 15 1 C15 1.33 15 1.66 15 2 C10.545 2.495 10.545 2.495 6 3 C6.33 3.99 6.66 4.98 7 6 C5 7 5 7 2 8 C2 7.34 2 6.68 2 6 C1.01 5.67 0.02 5.34 -1 5 C-0.67 3.35 -0.34 1.7 0 0 Z " fill="#151618" transform="translate(329,720)"/>
<path d="M0 0 C0.99 0.33 1.98 0.66 3 1 C2.01 3.31 1.02 5.62 0 8 C-0.99 8 -1.98 8 -3 8 C-3.66 7.34 -4.32 6.68 -5 6 C-3.35 4.02 -1.7 2.04 0 0 Z M-7 7 C-6.34 7.33 -5.68 7.66 -5 8 C-8.465 10.97 -8.465 10.97 -12 14 C-12.33 13.34 -12.66 12.68 -13 12 C-11.02 10.35 -9.04 8.7 -7 7 Z " fill="#E2E2E2" transform="translate(692,535)"/>
<path d="M0 0 C0.66 0 1.32 0 2 0 C3.58444052 6.39014027 4.20287276 11.50448709 3 18 C-1 13.375 -1 13.375 -1 10 C-0.34 9.67 0.32 9.34 1 9 C0.67 6.03 0.34 3.06 0 0 Z " fill="#161718" transform="translate(378,363)"/>
<path d="M0 0 C7.48291572 6.15034169 7.48291572 6.15034169 10 10 C9.01 11.485 9.01 11.485 8 13 C6.0625 12.3125 6.0625 12.3125 4 11 C3.65846063 9.33499557 3.32550502 7.66821323 3 6 C1.0431712 4.17662247 1.0431712 4.17662247 -1 3 C-0.67 2.01 -0.34 1.02 0 0 Z " fill="#0D0D0F" transform="translate(492,281)"/>
<path d="M0 0 C4.455 0.99 4.455 0.99 9 2 C8.01 2.495 8.01 2.495 7 3 C7 4.98 7 6.96 7 9 C5.68 9 4.36 9 3 9 C3 8.34 3 7.68 3 7 C2.34 7 1.68 7 1 7 C0.67 4.69 0.34 2.38 0 0 Z " fill="#171718" transform="translate(263,616)"/>
<path d="M0 0 C1.32 0.99 2.64 1.98 4 3 C4 2.34 4 1.68 4 1 C4.66 1 5.32 1 6 1 C5.25 6.75 5.25 6.75 3 9 C1.35 9.33 -0.3 9.66 -2 10 C-1.34 6.7 -0.68 3.4 0 0 Z " fill="#1D1D1D" transform="translate(683,376)"/>
<path d="M0 0 C1.33333333 0.66666667 2.66666667 1.33333333 4 2 C4 2.66 4 3.32 4 4 C4.66 4.33 5.32 4.66 6 5 C5.01 7.97 4.02 10.94 3 14 C0.25046054 11.25046054 -0.17042807 8.7649803 -1 5 C-0.625 2.0625 -0.625 2.0625 0 0 Z " fill="#131416" transform="translate(483,207)"/>
<path d="M0 0 C1.58203125 1.734375 1.58203125 1.734375 3 4 C2.63671875 6.140625 2.63671875 6.140625 1.6875 8.25 C1.38199219 8.95640625 1.07648437 9.6628125 0.76171875 10.390625 C0.51035156 10.92171875 0.25898437 11.4528125 0 12 C0.66 12.66 1.32 13.32 2 14 C1.38125 14.433125 0.7625 14.86625 0.125 15.3125 C-2.2197245 16.99740483 -2.2197245 16.99740483 -4 20 C-3.34034961 13.13963599 -1.7637236 6.65556077 0 0 Z " fill="#DADCDB" transform="translate(747,338)"/>
<path d="M0 0 C2.00720923 0.28674418 4.0085944 0.61866701 6 1 C6.125 3.875 6.125 3.875 6 7 C5.34 7.66 4.68 8.32 4 9 C3.34 9 2.68 9 2 9 C1.01 6.36 0.02 3.72 -1 1 C-0.67 0.67 -0.34 0.34 0 0 Z " fill="#101010" transform="translate(266,724)"/>
<path d="M0 0 C0.99 0.33 1.98 0.66 3 1 C0.33333333 3.66666667 -2.33333333 6.33333333 -5 9 C-5.99 8.67 -6.98 8.34 -8 8 C-8 5 -8 5 -6 2 C-3.4375 1.375 -3.4375 1.375 -1 1 C-0.67 0.67 -0.34 0.34 0 0 Z " fill="#E9EAEA" transform="translate(722,288)"/>
<path d="M0 0 C0.99 0.66 1.98 1.32 3 2 C1.51461988 6.7037037 1.51461988 6.7037037 -1.0625 8.1875 C-1.701875 8.455625 -2.34125 8.72375 -3 9 C-3.33 9.66 -3.66 10.32 -4 11 C-4.49230769 4.6 -4.49230769 4.6 -2 1.5625 C-1.34 1.046875 -0.68 0.53125 0 0 Z " fill="#131416" transform="translate(399,648)"/>
<path d="M0 0 C4 1 4 1 5.8125 2.875 C6.204375 3.57625 6.59625 4.2775 7 5 C6.67 5.99 6.34 6.98 6 8 C4.33333333 8 2.66666667 8 1 8 C1.33 8.66 1.66 9.32 2 10 C0.68 10 -0.64 10 -2 10 C-1.34 6.7 -0.68 3.4 0 0 Z " fill="#0C0D0F" transform="translate(474,262)"/>
<path d="M0 0 C2.046875 3.71875 2.046875 3.71875 1.625 6.25 C1.41875 6.8275 1.2125 7.405 1 8 C-1.64 8.33 -4.28 8.66 -7 9 C-7 6 -7 6 -5.46875 4.39453125 C-4.49421875 3.61142578 -4.49421875 3.61142578 -3.5 2.8125 C-2.8503125 2.28269531 -2.200625 1.75289062 -1.53125 1.20703125 C-1.0259375 0.80871094 -0.520625 0.41039062 0 0 Z " fill="#EAEAEA" transform="translate(636,752)"/>
<path d="M0 0 C3.7952131 1.49097658 5.61042731 3.75700849 8 7 C5.75 7.75 5.75 7.75 3 8 C0.625 6.3125 0.625 6.3125 -1 4 C-0.75 1.75 -0.75 1.75 0 0 Z " fill="#F2F2F2" transform="translate(505,255)"/>
<path d="M0 0 C3.68646141 1.45855647 5.16143971 3.30229045 7.25 6.625 C8.03117187 7.85089844 8.03117187 7.85089844 8.828125 9.1015625 C9.21484375 9.72804687 9.6015625 10.35453125 10 11 C7.125 11.1875 7.125 11.1875 4 11 C2 8 2 8 2 4 C1.06716704 1.79932579 1.06716704 1.79932579 0 0 Z " fill="#EAEBEB" transform="translate(496,243)"/>
<path d="M0 0 C0.8971875 0.5259375 0.8971875 0.5259375 1.8125 1.0625 C0.1625 3.0425 -1.4875 5.0225 -3.1875 7.0625 C-4.5075 6.0725 -5.8275 5.0825 -7.1875 4.0625 C-6.375 2.125 -6.375 2.125 -5.1875 0.0625 C-2.1875 -0.9375 -2.1875 -0.9375 0 0 Z " fill="#0E0F11" transform="translate(640.1875,744.9375)"/>
<path d="M0 0 C4.63708939 2.60836278 8.78744458 5.77002574 13 9 C12.34 9.66 11.68 10.32 11 11 C8.5 9.625 8.5 9.625 6 8 C6 7.34 6 6.68 6 6 C5.34 6 4.68 6 4 6 C3.67 6.66 3.34 7.32 3 8 C1.92474806 5.34771188 0.90543849 2.71631546 0 0 Z " fill="#18191A" transform="translate(502,291)"/>
<path d="M0 0 C2.5 0.125 2.5 0.125 3.5 1.125 C3.54063832 2.79117115 3.542721 4.45888095 3.5 6.125 C1.52 6.125 -0.46 6.125 -2.5 6.125 C-2.88218767 4.46885343 -3.21395102 2.80042976 -3.5 1.125 C-2.5 0.125 -2.5 0.125 0 0 Z " fill="#090A0C" transform="translate(336.5,203.875)"/>
<path d="M0 0 C1.76923828 0.01353516 1.76923828 0.01353516 3.57421875 0.02734375 C4.47785156 0.03894531 5.38148438 0.05054687 6.3125 0.0625 C6.3125 0.3925 6.3125 0.7225 6.3125 1.0625 C2.6825 1.3925 -0.9475 1.7225 -4.6875 2.0625 C-5.0175 3.3825 -5.3475 4.7025 -5.6875 6.0625 C-6.43 5.711875 -7.1725 5.36125 -7.9375 5 C-10.8197726 4.01740707 -11.89926345 4.0298198 -14.6875 5.0625 C-9.59351461 0.7945663 -6.61177082 -0.06546308 0 0 Z " fill="#D6D6D6" transform="translate(612.6875,64.9375)"/>
<path d="M0 0 C3 1 3 1 4.16796875 3.06640625 C4.50441406 3.89011719 4.84085937 4.71382812 5.1875 5.5625 C5.53167969 6.38878906 5.87585938 7.21507812 6.23046875 8.06640625 C6.48441406 8.70449219 6.73835938 9.34257813 7 10 C3 10 3 10 1.25 8.375 C-0.30380397 5.42277246 -0.22432841 3.29014997 0 0 Z " fill="#EBEBEB" transform="translate(505,725)"/>
<path d="M0 0 C1.43739513 -0.02712066 2.87493863 -0.04645067 4.3125 -0.0625 C5.51326172 -0.07990234 5.51326172 -0.07990234 6.73828125 -0.09765625 C9 0 9 0 12 1 C12 1.66 12 2.32 12 3 C10.35 3.66 8.7 4.32 7 5 C6.67 4.01 6.34 3.02 6 2 C5.34 2 4.68 2 4 2 C3.67 2.99 3.34 3.98 3 5 C1.5 3.625 1.5 3.625 0 2 C0 1.34 0 0.68 0 0 Z " fill="#121213" transform="translate(534,508)"/>
<path d="M0 0 C2.0625 2.1875 2.0625 2.1875 4 5 C3.83061117 8.47247108 2.56109092 10.94877683 1 14 C-1.48063781 4.58997722 -1.48063781 4.58997722 0 0 Z " fill="#171717" transform="translate(331,384)"/>
<path d="M0 0 C1.08642103 3.2592631 0.92167347 3.8663102 0 7 C-0.34060811 8.66519519 -0.67558396 10.33157466 -1 12 C-2.98 12 -4.96 12 -7 12 C-6.20994338 10.56161448 -5.41788955 9.12432585 -4.625 7.6875 C-4.18414063 6.88699219 -3.74328125 6.08648437 -3.2890625 5.26171875 C-2.26486665 3.46472057 -1.14732862 1.72099292 0 0 Z " fill="#171819" transform="translate(758,248)"/>
<path d="M0 0 C0.99 0.33 1.98 0.66 3 1 C3.73046875 3.06640625 3.73046875 3.06640625 4.1875 5.5625 C4.34605469 6.38878906 4.50460938 7.21507812 4.66796875 8.06640625 C4.77753906 8.70449219 4.88710937 9.34257812 5 10 C2.36 8.68 -0.28 7.36 -3 6 C-2.625 3.5625 -2.625 3.5625 -2 1 C-1.34 0.67 -0.68 0.34 0 0 Z " fill="#1C1D1F" transform="translate(204,173)"/>
<path d="M0 0 C0.556875 0.226875 1.11375 0.45375 1.6875 0.6875 C1.0275 2.3375 0.3675 3.9875 -0.3125 5.6875 C-1.42625 5.666875 -2.54 5.64625 -3.6875 5.625 C-7.14465921 5.42369282 -7.14465921 5.42369282 -9.3125 6.6875 C-7.70234959 2.442558 -4.80443663 -0.64924819 0 0 Z " fill="#E4E4E4" transform="translate(527.3125,144.3125)"/>
<path d="M0 0 C2.31 0.33 4.62 0.66 7 1 C6 3 6 3 3.1875 4.125 C-2.10130165 5.54124814 -7.57311679 5.16040049 -13 5 C-13 4.67 -13 4.34 -13 4 C-12.31292969 3.93941406 -11.62585938 3.87882812 -10.91796875 3.81640625 C-10.01691406 3.73261719 -9.11585938 3.64882813 -8.1875 3.5625 C-7.29417969 3.48128906 -6.40085937 3.40007812 -5.48046875 3.31640625 C-2.87256441 3.06510233 -2.87256441 3.06510233 0 2 C0 1.34 0 0.68 0 0 Z " fill="#C7C7C7" transform="translate(619,259)"/>
<path d="M0 0 C2.12038635 2.61514317 4.13091744 5.19637616 6 8 C5.21625 8.4125 4.4325 8.825 3.625 9.25 C0.94108344 11.0392777 0.11901051 12.04988139 -1 15 C-1 12.69 -1 10.38 -1 8 C-0.01 8 0.98 8 2 8 C1.34 7.34 0.68 6.68 0 6 C-1.24546405 3.50907189 -0.7767578 2.58919267 0 0 Z " fill="#1E1F20" transform="translate(515,174)"/>
<path d="M0 0 C0.66 0.33 1.32 0.66 2 1 C0.77782954 5.04256383 -0.62754296 8.49288959 -3 12 C-3.33 12 -3.66 12 -4 12 C-4 9.03 -4 6.06 -4 3 C-3.01 2.67 -2.02 2.34 -1 2 C-0.67 1.34 -0.34 0.68 0 0 Z " fill="#1D1E20" transform="translate(700,517)"/>
<path d="M0 0 C0.66 0.33 1.32 0.66 2 1 C2.625 3.5625 2.625 3.5625 3 6 C0.03 6.66 -2.94 7.32 -6 8 C-4.21844267 4.43688534 -2.83236991 2.64354525 0 0 Z " fill="#141414" transform="translate(663,288)"/>
<path d="M0 0 C4.08191983 1.85541811 6.99298184 3.67080133 10 7 C10.66 7.66 11.32 8.32 12 9 C11.34 9.66 10.68 10.32 10 11 C6.37 8.03 2.74 5.06 -1 2 C-0.67 1.34 -0.34 0.68 0 0 Z " fill="#151516" transform="translate(519,265)"/>
<path d="M0 0 C0.66 0.66 1.32 1.32 2 2 C0.68 4.64 -0.64 7.28 -2 10 C-2.99 9.67 -3.98 9.34 -5 9 C-5.625 6.625 -5.625 6.625 -6 4 C-5.34 3.34 -4.68 2.68 -4 2 C-3.01 2.33 -2.02 2.66 -1 3 C-0.67 2.01 -0.34 1.02 0 0 Z " fill="#F1F2F2" transform="translate(198,545)"/>
<path d="M0 0 C0.99 0.33 1.98 0.66 3 1 C4.33599181 4.00598158 5.14345053 6.09147996 4.625 9.375 C4.41875 9.91125 4.2125 10.4475 4 11 C2.5 9.625 2.5 9.625 1 8 C1 7.34 1 6.68 1 6 C0.34 6 -0.32 6 -1 6 C-1.042721 4.33388095 -1.04063832 2.66617115 -1 1 C-0.67 0.67 -0.34 0.34 0 0 Z " fill="#222325" transform="translate(372,342)"/>
<path d="M0 0 C0 0.99 0 1.98 0 3 C-1.75 4.75 -1.75 4.75 -4 6 C-6.25 5.6875 -6.25 5.6875 -8 5 C-7.75 3.125 -7.75 3.125 -7 1 C-4.09342573 -1.03460199 -3.47133392 -1.15711131 0 0 Z " fill="#141517" transform="translate(658,237)"/>
<path d="M0 0 C1.32 0 2.64 0 4 0 C4.125 3.375 4.125 3.375 4 7 C3.34 7.66 2.68 8.32 2 9 C1.01 9 0.02 9 -1 9 C-0.67 6.03 -0.34 3.06 0 0 Z " fill="#111214" transform="translate(442,176)"/>
<path d="M0 0 C0.66 0 1.32 0 2 0 C1.8864371 1.64666203 1.75882619 3.29236082 1.625 4.9375 C1.55539062 5.85402344 1.48578125 6.77054688 1.4140625 7.71484375 C1.27742187 8.46894531 1.14078125 9.22304688 1 10 C0.01 10.495 0.01 10.495 -1 11 C-1.66 10.01 -2.32 9.02 -3 8 C-3.66 7.34 -4.32 6.68 -5 6 C-3.38405168 3.95880212 -1.7143618 1.95927063 0 0 Z " fill="#1E1F21" transform="translate(687,531)"/>
<path d="M0 0 C0.22577402 5.4185766 -0.53329887 9.77487721 -2 15 C-2.33 15 -2.66 15 -3 15 C-3.24900646 13.06494977 -3.47356242 11.12674066 -3.6875 9.1875 C-3.81511719 8.10855469 -3.94273437 7.02960938 -4.07421875 5.91796875 C-4 3 -4 3 -2.58203125 1.11328125 C-1 0 -1 0 0 0 Z " fill="#191919" transform="translate(724,429)"/>
<path d="M0 0 C5.85272256 0.45020943 10.08220119 3.03839227 15 6 C13.02 6.99 13.02 6.99 11 8 C8.96166576 6.7260411 6.96147874 5.38938077 5 4 C5 3.34 5 2.68 5 2 C3.35 1.67 1.7 1.34 0 1 C0 0.67 0 0.34 0 0 Z " fill="#EBECEC" transform="translate(538,284)"/>
<path d="M0 0 C0.66 0.33 1.32 0.66 2 1 C2.59355614 3.64860427 2.74209269 6.29197322 3 9 C2.01 9 1.02 9 0 9 C0 8.34 0 7.68 0 7 C-0.66 7 -1.32 7 -2 7 C-2.33 6.01 -2.66 5.02 -3 4 C-1.5625 1.8125 -1.5625 1.8125 0 0 Z " fill="#ECECEC" transform="translate(597,70)"/>
<path d="M0 0 C0 0.66 0 1.32 0 2 C-2.64738916 3.4606285 -3.89448334 4 -7 4 C-6.67 4.99 -6.34 5.98 -6 7 C-8.31 6.34 -10.62 5.68 -13 5 C-8.94191935 2.2946129 -4.95110601 0 0 0 Z " fill="#1C1C1E" transform="translate(570,32)"/>
<path d="M0 0 C0.99 0.66 1.98 1.32 3 2 C3 2.99 3 3.98 3 5 C1.02 5.66 -0.96 6.32 -3 7 C-3.66 6.01 -4.32 5.02 -5 4 C-3.35 2.68 -1.7 1.36 0 0 Z " fill="#EEEEEE" transform="translate(394,752)"/>
<path d="M0 0 C1.32 0 2.64 0 4 0 C5.03366148 3.74702285 5.25733598 6.22799206 4 10 C1.74754119 7.31158141 0.11786042 5.35358125 -1 2 C-0.67 1.34 -0.34 0.68 0 0 Z " fill="#E4E4E4" transform="translate(465,240)"/>
<path d="M0 0 C2.64 1.98 5.28 3.96 8 6 C7.01 6.66 6.02 7.32 5 8 C3 7 3 7 1 4 C0.34 4 -0.32 4 -1 4 C-1.66 4.66 -2.32 5.32 -3 6 C-3 4.68 -3 3.36 -3 2 C-2.01 1.34 -1.02 0.68 0 0 Z " fill="#161718" transform="translate(317,711)"/>
<path d="M0 0 C-1 3 -1 3 -2.84765625 4.16796875 C-3.57855469 4.50441406 -4.30945313 4.84085938 -5.0625 5.1875 C-5.79597656 5.53167969 -6.52945313 5.87585938 -7.28515625 6.23046875 C-8.13400391 6.61138672 -8.13400391 6.61138672 -9 7 C-8.649375 6.38125 -8.29875 5.7625 -7.9375 5.125 C-7.628125 4.42375 -7.31875 3.7225 -7 3 C-7.33 2.34 -7.66 1.68 -8 1 C-3.375 -1.125 -3.375 -1.125 0 0 Z " fill="#ECEDEF" transform="translate(232,515)"/>
<path d="M0 0 C2 2 2 2 2.3125 5 C2.209375 5.99 2.10625 6.98 2 8 C1.01 8.66 0.02 9.32 -1 10 C-2.1875 7.25 -2.1875 7.25 -3 4 C-1.625 1.625 -1.625 1.625 0 0 Z " fill="#1E1F21" transform="translate(631,254)"/>
<path d="M0 0 C0.99 0.33 1.98 0.66 3 1 C3 1.66 3 2.32 3 3 C3.99 3.33 4.98 3.66 6 4 C6 5.65 6 7.3 6 9 C5.01 9.495 5.01 9.495 4 10 C0 3.375 0 3.375 0 0 Z " fill="#191919" transform="translate(601,677)"/>
<path d="M0 0 C0.66 0 1.32 0 2 0 C2.33 0.99 2.66 1.98 3 3 C0.03 5.475 0.03 5.475 -3 8 C-3.66 7.34 -4.32 6.68 -5 6 C-4.67 5.01 -4.34 4.02 -4 3 C-1.9375 2.3125 -1.9375 2.3125 0 2 C0 1.34 0 0.68 0 0 Z " fill="#EAEAEB" transform="translate(737,272)"/>
<path d="M0 0 C0.66 0 1.32 0 2 0 C1.875 2.25 1.875 2.25 1 5 C-2.0625 7.3125 -2.0625 7.3125 -5 9 C-5 4.68381834 -2.86729652 3.07210341 0 0 Z " fill="#E8E8E8" transform="translate(725,247)"/>
<path d="M0 0 C-0.33 1.65 -0.66 3.3 -1 5 C-2.32 5.33 -3.64 5.66 -5 6 C-5.33 7.65 -5.66 9.3 -6 11 C-6.33 11 -6.66 11 -7 11 C-7.3125 7.75 -7.3125 7.75 -7 4 C-3.1025641 0 -3.1025641 0 0 0 Z " fill="#111214" transform="translate(680,196)"/>
<path d="M0 0 C0.99 0.33 1.98 0.66 3 1 C2.07347299 2.17539996 1.13336613 3.34010577 0.1875 4.5 C-0.33457031 5.1496875 -0.85664062 5.799375 -1.39453125 6.46875 C-3 8 -3 8 -6 8 C-4.95125002 5.37812506 -4.35068687 4.20628639 -1.875 2.75 C-1.25625 2.5025 -0.6375 2.255 0 2 C0 1.34 0 0.68 0 0 Z " fill="#E1E1E2" transform="translate(516,60)"/>
<path d="M0 0 C0.66 0.99 1.32 1.98 2 3 C-0.00379507 9.34535104 -0.00379507 9.34535104 -3.1875 11.4375 C-4.0846875 11.7159375 -4.0846875 11.7159375 -5 12 C-5 7.98905773 -3.23899001 6.25671275 -1 3 C-0.67 2.01 -0.34 1.02 0 0 Z " fill="#151515" transform="translate(605,704)"/>
<path d="M0 0 C0 0.99 0 1.98 0 3 C-2.97 3.66 -5.94 4.32 -9 5 C-6.64389875 0.2877975 -5.23968794 -1.74656265 0 0 Z " fill="#1F2022" transform="translate(660,555)"/>
<path d="M0 0 C0.99 0.33 1.98 0.66 3 1 C3.66 0.67 4.32 0.34 5 0 C5.66 1.32 6.32 2.64 7 4 C5.02 4.99 5.02 4.99 3 6 C2.01 5.34 1.02 4.68 0 4 C-0.33 4.66 -0.66 5.32 -1 6 C-0.67 4.02 -0.34 2.04 0 0 Z " fill="#1A1A1A" transform="translate(330,378)"/>
<path d="M0 0 C0.66 0.66 1.32 1.32 2 2 C1.625 4.625 1.625 4.625 1 7 C0.401875 6.690625 -0.19625 6.38125 -0.8125 6.0625 C-3.08956772 4.89790296 -3.08956772 4.89790296 -6 4 C-4.02 2.68 -2.04 1.36 0 0 Z " fill="#101010" transform="translate(717,296)"/>
<path d="M0 0 C1.32 0 2.64 0 4 0 C4 0.66 4 1.32 4 2 C3.34 2 2.68 2 2 2 C2.33 3.32 2.66 4.64 3 6 C1.02 6.33 -0.96 6.66 -3 7 C-3 3.46013806 -2.41847197 2.50484597 0 0 Z " fill="#EBEBEB" transform="translate(403,741)"/>
<path d="M0 0 C0.66 0.33 1.32 0.66 2 1 C1.54965877 2.62723299 1.08944646 4.25173664 0.625 5.875 C0.36976563 6.77992188 0.11453125 7.68484375 -0.1484375 8.6171875 C-1 11 -1 11 -3 13 C-3.4726477 4.80743982 -3.4726477 4.80743982 -1.5 1.4375 C-0.7575 0.7259375 -0.7575 0.7259375 0 0 Z " fill="#0F1010" transform="translate(412,718)"/>
<path d="M0 0 C2.64 0.33 5.28 0.66 8 1 C7.67 2.32 7.34 3.64 7 5 C6.34 5 5.68 5 5 5 C4.67 5.66 4.34 6.32 4 7 C3.67 6.01 3.34 5.02 3 4 C2.34 3.67 1.68 3.34 1 3 C1.66 3 2.32 3 3 3 C3 2.34 3 1.68 3 1 C2.01 0.67 1.02 0.34 0 0 Z " fill="#212121" transform="translate(589,617)"/>
<path d="M0 0 C0 1.32 0 2.64 0 4 C-1.98 4.99 -1.98 4.99 -4 6 C-4 5.34 -4 4.68 -4 4 C-5.98 4.99 -5.98 4.99 -8 6 C-6.24081631 1.94034532 -4.71412298 0 0 0 Z " fill="#131416" transform="translate(317,212)"/>
<path d="M0 0 C0.103125 0.639375 0.20625 1.27875 0.3125 1.9375 C0.539375 2.618125 0.76625 3.29875 1 4 C1.99 4.33 2.98 4.66 4 5 C4 5.66 4 6.32 4 7 C5.32 7.66 6.64 8.32 8 9 C7.34 9 6.68 9 6 9 C5.67 9.66 5.34 10.32 5 11 C3.96409662 9.93106782 2.94666058 8.84421512 1.9375 7.75 C1.36902344 7.14671875 0.80054688 6.5434375 0.21484375 5.921875 C-1 4 -1 4 -0.68359375 1.765625 C-0.45800781 1.18296875 -0.23242188 0.6003125 0 0 Z " fill="#121315" transform="translate(36,117)"/>
<path d="M0 0 C0.66 0 1.32 0 2 0 C2 0.66 2 1.32 2 2 C2.99 2 3.98 2 5 2 C3.25 6.875 3.25 6.875 1 8 C0.67 6.35 0.34 4.7 0 3 C-0.99 3.495 -0.99 3.495 -2 4 C-1.34 2.68 -0.68 1.36 0 0 Z " fill="#E2E4E3" transform="translate(356,706)"/>
<path d="M0 0 C3 1 3 1 4 2 C5.32594105 2.36162029 6.65938457 2.69728039 8 3 C8 3.99 8 4.98 8 6 C6.68 6.33 5.36 6.66 4 7 C4 6.34 4 5.68 4 5 C2.68 4.34 1.36 3.68 0 3 C0 2.01 0 1.02 0 0 Z " fill="#121212" transform="translate(624,632)"/>
<path d="M0 0 C0.66 0.33 1.32 0.66 2 1 C1.3125 3.4375 1.3125 3.4375 0 6 C-2.4375 6.6875 -2.4375 6.6875 -5 7 C-5.99 7.66 -6.98 8.32 -8 9 C-6.4169423 4.7257442 -3.49431596 2.73468206 0 0 Z " fill="#E0E2E1" transform="translate(255,564)"/>
<path d="M0 0 C0.33 1.32 0.66 2.64 1 4 C-2 6 -2 6 -5 6 C-5.33 6.66 -5.66 7.32 -6 8 C-6.66 7.01 -7.32 6.02 -8 5 C-4.04 2.525 -4.04 2.525 0 0 Z " fill="#181919" transform="translate(705,304)"/>
<path d="M0 0 C1.65 0 3.3 0 5 0 C3.70700306 2.88437779 2.34058637 4.87219421 0 7 C-0.99 6.01 -1.98 5.02 -3 4 C-2.67 3.34 -2.34 2.68 -2 2 C-1.34 2.33 -0.68 2.66 0 3 C0 2.01 0 1.02 0 0 Z " fill="#141414" transform="translate(724,241)"/>
<path d="M0 0 C-0.33 1.65 -0.66 3.3 -1 5 C-1.99 4.67 -2.98 4.34 -4 4 C-4.33 4.66 -4.66 5.32 -5 6 C-5 5.01 -5 4.02 -5 3 C-5.99 3.33 -6.98 3.66 -8 4 C-7.1875 2.0625 -7.1875 2.0625 -6 0 C-3 -1 -3 -1 0 0 Z " fill="#111214" transform="translate(179,190)"/>
<path d="M0 0 C2.23551759 3.35327639 2.17283528 3.90743657 1.625 7.6875 C1.51414062 8.49574219 1.40328125 9.30398437 1.2890625 10.13671875 C1.19367187 10.75160156 1.09828125 11.36648437 1 12 C0.01 11.34 -0.98 10.68 -2 10 C-1.125 2.25 -1.125 2.25 0 0 Z " fill="#141517" transform="translate(748,186)"/>
<path d="M0 0 C2.93200474 2.85276137 5.64315404 5.65079784 8 9 C5 9 5 9 3.5 7.6875 C3.005 7.130625 2.51 6.57375 2 6 C1.443125 5.443125 0.88625 4.88625 0.3125 4.3125 C-0.120625 3.879375 -0.55375 3.44625 -1 3 C-0.67 2.01 -0.34 1.02 0 0 Z " fill="#1B1D1C" transform="translate(484,272)"/>
<path d="M0 0 C0.99 0 1.98 0 3 0 C2.67 2.97 2.34 5.94 2 9 C1.34 9 0.68 9 0 9 C-1.125 6.1875 -1.125 6.1875 -2 3 C-1.34 2.01 -0.68 1.02 0 0 Z " fill="#151515" transform="translate(492,94)"/>
<path d="M0 0 C0.99 0.33 1.98 0.66 3 1 C2.2575 1.5775 1.515 2.155 0.75 2.75 C-1.66087643 4.72253526 -3.84042701 6.76044282 -6 9 C-6.33 8.01 -6.66 7.02 -7 6 C-5.90716423 4.96704564 -4.80029421 3.94892165 -3.6875 2.9375 C-3.07261719 2.36902344 -2.45773437 1.80054687 -1.82421875 1.21484375 C-0.92123047 0.61349609 -0.92123047 0.61349609 0 0 Z " fill="#101010" transform="translate(600,65)"/>
<path d="M0 0 C2.6875 0.3125 2.6875 0.3125 5 1 C4.67 1.99 4.34 2.98 4 4 C2.125 4.8125 2.125 4.8125 0 5 C-0.99 4.34 -1.98 3.68 -3 3 C-1.8125 1.4375 -1.8125 1.4375 0 0 Z " fill="#F2F2F2" transform="translate(307,769)"/>
<path d="M0 0 C1.32 0.33 2.64 0.66 4 1 C4.66 0.67 5.32 0.34 6 0 C6.33 0.99 6.66 1.98 7 3 C6.34 3.66 5.68 4.32 5 5 C5 5.99 5 6.98 5 8 C2.525 4.04 2.525 4.04 0 0 Z M6 5 C8 6 8 6 8 6 Z " fill="#1B1C1E" transform="translate(271,737)"/>
<path d="M0 0 C-2.68841859 2.25245881 -4.64641875 3.88213958 -8 5 C-8.33 4.01 -8.66 3.02 -9 2 C-3.375 -1.125 -3.375 -1.125 0 0 Z " fill="#EEEEEE" transform="translate(598,715)"/>
<path d="M0 0 C0.33 0 0.66 0 1 0 C1.05447047 1.41623216 1.09300508 2.83308191 1.125 4.25 C1.14820313 5.03890625 1.17140625 5.8278125 1.1953125 6.640625 C0.9828378 9.20731941 0.28654105 10.7916067 -1 13 C-1.66 13 -2.32 13 -3 13 C-3.33 11.68 -3.66 10.36 -4 9 C-3.34 9 -2.68 9 -2 9 C-2 8.34 -2 7.68 -2 7 C-1.34 7 -0.68 7 0 7 C0 4.69 0 2.38 0 0 Z " fill="#C1C1C1" transform="translate(364,691)"/>
<path d="M0 0 C1.32 0 2.64 0 4 0 C4 1.65 4 3.3 4 5 C2.02 5.33 0.04 5.66 -2 6 C-1.49396008 3.83125748 -1.00016187 2.00032373 0 0 Z " fill="#E2E2E2" transform="translate(245,506)"/>
<path d="M0 0 C1.86351199 2.79526798 2.34308907 3.84045627 2.75 7 C2.84796875 7.680625 2.9459375 8.36125 3.046875 9.0625 C3 11 3 11 1 14 C0.34843591 9.27616037 -0.11950637 4.78025483 0 0 Z " fill="#2B2D2C" transform="translate(265,370)"/>
<path d="M0 0 C0.66 0 1.32 0 2 0 C4.09230769 4.43076923 4.09230769 4.43076923 3.625 7.3125 C3.41875 7.869375 3.2125 8.42625 3 9 C2.34 8.34 1.68 7.68 1 7 C0.34 7 -0.32 7 -1 7 C-0.67 4.69 -0.34 2.38 0 0 Z " fill="#E7E8EA" transform="translate(209,373)"/>
<path d="M0 0 C1.32 0.33 2.64 0.66 4 1 C1.69 2.65 -0.62 4.3 -3 6 C-3.66 5.34 -4.32 4.68 -5 4 C-5 3.01 -5 2.02 -5 1 C-2.525 1.495 -2.525 1.495 0 2 C0 1.34 0 0.68 0 0 Z " fill="#EAEAEA" transform="translate(711,297)"/>
<path d="M0 0 C1.22376937 3.6713081 0.61664584 4.59653508 -1 8 C-1.99 9.485 -1.99 9.485 -3 11 C-3.66 11 -4.32 11 -5 11 C-3.77472971 6.94718288 -2.30119506 3.55639236 0 0 Z " fill="#272827" transform="translate(767,231)"/>
<path d="M0 0 C2.97 0 5.94 0 9 0 C6.06171403 2.50298434 3.82097239 3.46930939 0 4 C0 2.68 0 1.36 0 0 Z " fill="#E2E4E3" transform="translate(209,181)"/>
<path d="M0 0 C2.31 1.98 4.62 3.96 7 6 C6.34 6.66 5.68 7.32 5 8 C0.125 4.25 0.125 4.25 -1 2 C-0.67 1.34 -0.34 0.68 0 0 Z " fill="#151516" transform="translate(703,58)"/>
<path d="M0 0 C0.99 0.33 1.98 0.66 3 1 C1.88333826 4.34998521 1.25305075 4.79340222 -1.5625 6.6875 C-2.20316406 7.12449219 -2.84382812 7.56148437 -3.50390625 8.01171875 C-3.99761719 8.33785156 -4.49132812 8.66398437 -5 9 C-5 7.68 -5 6.36 -5 5 C-3.35 4.34 -1.7 3.68 0 3 C0 2.01 0 1.02 0 0 Z " fill="#E2E3E3" transform="translate(528,49)"/>
<path d="M0 0 C0.66 1.32 1.32 2.64 2 4 C-0.64 4.66 -3.28 5.32 -6 6 C-6.33 5.34 -6.66 4.68 -7 4 C-4.69 2.68 -2.38 1.36 0 0 Z " fill="#181818" transform="translate(547,41)"/>
<path d="M0 0 C2.64 1.65 5.28 3.3 8 5 C6.02 5.99 6.02 5.99 4 7 C4 6.34 4 5.68 4 5 C2.68 5.33 1.36 5.66 0 6 C0 4.02 0 2.04 0 0 Z " fill="#E7E7E7" transform="translate(529,756)"/>
<path d="M0 0 C4.875 4.75 4.875 4.75 6 7 C5.01 7.33 4.02 7.66 3 8 C0.9375 5.6875 0.9375 5.6875 -1 3 C-0.67 2.01 -0.34 1.02 0 0 Z " fill="#EBECEE" transform="translate(275,744)"/>
<path d="M0 0 C0.66 1.32 1.32 2.64 2 4 C1.34 4 0.68 4 0 4 C-0.33 4.99 -0.66 5.98 -1 7 C-2.65 7.33 -4.3 7.66 -6 8 C-4.02 5.36 -2.04 2.72 0 0 Z " fill="#DFDFE0" transform="translate(643,744)"/>
<path d="M0 0 C1.1157177 3.34715311 1.1807689 4.71071522 0 8 C-2.5625 9.3125 -2.5625 9.3125 -5 10 C-3.66511872 6.40608886 -2.03977277 3.24509304 0 0 Z " fill="#1E1F1E" transform="translate(201,544)"/>
<path d="M0 0 C0.66 0.33 1.32 0.66 2 1 C1.3125 3.4375 1.3125 3.4375 0 6 C-2.625 6.8125 -2.625 6.8125 -5 7 C-3.47793991 4.37098712 -2.15634036 2.15634036 0 0 Z " fill="#F1F2F2" transform="translate(702,271)"/>
<path d="M0 0 C1.98 0.495 1.98 0.495 4 1 C3.67 3.31 3.34 5.62 3 8 C0.7522025 5.94766315 -0.0022242 4.99332739 -1 2 C-0.67 1.34 -0.34 0.68 0 0 Z " fill="#161717" transform="translate(488,222)"/>
<path d="M0 0 C0.99 0.99 1.98 1.98 3 3 C2.34 4.98 1.68 6.96 1 9 C-1.5654594 6.4345406 -1.54046087 4.52313332 -2 1 C-1.34 0.67 -0.68 0.34 0 0 Z " fill="#1C1D1F" transform="translate(148,143)"/>
<path d="M0 0 C2.3129482 2.3129482 2.49580975 3.47904875 3.125 6.625 C3.29257813 7.44226563 3.46015625 8.25953125 3.6328125 9.1015625 C3.81457031 10.04128906 3.81457031 10.04128906 4 11 C2.68 10.67 1.36 10.34 0 10 C0.33 9.34 0.66 8.68 1 8 C0.34 7.67 -0.32 7.34 -1 7 C-0.34 7 0.32 7 1 7 C0.67 4.69 0.34 2.38 0 0 Z " fill="#272729" transform="translate(188,112)"/>
<path d="M0 0 C0.33 0.66 0.66 1.32 1 2 C1.66 2 2.32 2 3 2 C3 2.66 3 3.32 3 4 C4.98 4 6.96 4 9 4 C9 4.33 9 4.66 9 5 C5.7 5 2.4 5 -1 5 C-1.33 3.68 -1.66 2.36 -2 1 C-1.34 0.67 -0.68 0.34 0 0 Z " fill="#1F2022" transform="translate(332,665)"/>
<path d="M0 0 C2.97 0.495 2.97 0.495 6 1 C5.67 2.32 5.34 3.64 5 5 C5.99 5.33 6.98 5.66 8 6 C7.34 6.66 6.68 7.32 6 8 C4.9970458 6.85675161 3.99770973 5.71032809 3 4.5625 C2.443125 3.92441406 1.88625 3.28632812 1.3125 2.62890625 C0 1 0 1 0 0 Z " fill="#212322" transform="translate(207,640)"/>
<path d="M0 0 C0.66 0.99 1.32 1.98 2 3 C1.67 3.99 1.34 4.98 1 6 C0.4225 5.690625 -0.155 5.38125 -0.75 5.0625 C-2.84294184 4.07416636 -4.74535275 3.4831387 -7 3 C-4.69 2.01 -2.38 1.02 0 0 Z " fill="#E9EAEC" transform="translate(670,553)"/>
<path d="M0 0 C-0.33 0.99 -0.66 1.98 -1 3 C-4.3 3.33 -7.6 3.66 -11 4 C-7.63661956 0.63661956 -4.71164284 0 0 0 Z " fill="#1A1B1D" transform="translate(243,513)"/>
<path d="M0 0 C0.33 0.66 0.66 1.32 1 2 C0.01 3.485 0.01 3.485 -1 5 C-1.66 5 -2.32 5 -3 5 C-3 5.66 -3 6.32 -3 7 C-3.66 7 -4.32 7 -5 7 C-5 6.34 -5 5.68 -5 5 C-6.32 4.67 -7.64 4.34 -9 4 C-8.43410156 3.79503906 -7.86820313 3.59007812 -7.28515625 3.37890625 C-6.55167969 3.10949219 -5.81820312 2.84007812 -5.0625 2.5625 C-4.33160156 2.29566406 -3.60070312 2.02882813 -2.84765625 1.75390625 C-1.01694322 1.14613052 -1.01694322 1.14613052 0 0 Z " fill="#1D1E1F" transform="translate(627,259)"/>
<path d="M0 0 C3.465 1.98 3.465 1.98 7 4 C7 4.33 7 4.66 7 5 C-1 5 -1 5 -3 4 C-1 1 -1 1 0 0 Z " fill="#1E1F21" transform="translate(597,258)"/>
<path d="M0 0 C1.32 0.99 2.64 1.98 4 3 C3.67 3.99 3.34 4.98 3 6 C1.35 5.67 -0.3 5.34 -2 5 C-2.33 4.01 -2.66 3.02 -3 2 C-2.01 1.34 -1.02 0.68 0 0 Z " fill="#1C1C1C" transform="translate(635,250)"/>
<path d="M0 0 C1.32 1.65 2.64 3.3 4 5 C3.34 5.66 2.68 6.32 2 7 C1.34 6.34 0.68 5.68 0 5 C-0.66 5.66 -1.32 6.32 -2 7 C-2.125 4.625 -2.125 4.625 -2 2 C-1.34 1.34 -0.68 0.68 0 0 Z " fill="#212121" transform="translate(467,248)"/>
<path d="M0 0 C0.66 0.99 1.32 1.98 2 3 C0.69593116 5.01920337 -0.63823419 7.01924973 -2 9 C-2.33 9 -2.66 9 -3 9 C-3.33 7.02 -3.66 5.04 -4 3 C-3.34 3 -2.68 3 -2 3 C-1.67 2.34 -1.34 1.68 -1 1 C-0.67 0.67 -0.34 0.34 0 0 Z " fill="#EBEBEC" transform="translate(501,76)"/>
<path d="M0 0 C2.62187494 1.04874998 3.79371361 1.64931313 5.25 4.125 C5.4975 4.74375 5.745 5.3625 6 6 C5.01 6 4.02 6 3 6 C0.8125 3.5 0.8125 3.5 -1 1 C-0.67 0.67 -0.34 0.34 0 0 Z " fill="#E7E8EA" transform="translate(713,65)"/>
<path d="M0 0 C0.33 0.66 0.66 1.32 1 2 C0.67 2.66 0.34 3.32 0 4 C0.66 4.33 1.32 4.66 2 5 C0.02 5.99 0.02 5.99 -2 7 C-2.99 5.68 -3.98 4.36 -5 3 C-3.35 2.01 -1.7 1.02 0 0 Z " fill="#EAEBEB" transform="translate(625,761)"/>
<path d="M0 0 C0.66 0 1.32 0 2 0 C2 0.66 2 1.32 2 2 C2.99 2.33 3.98 2.66 5 3 C4.01 3.66 3.02 4.32 2 5 C1.01 6.485 1.01 6.485 0 8 C-1.125 5.6875 -1.125 5.6875 -2 3 C-1.34 2.01 -0.68 1.02 0 0 Z " fill="#EFEFEF" transform="translate(646,740)"/>
<path d="M0 0 C0.66 0.33 1.32 0.66 2 1 C0.84414715 4.91211733 -0.35534962 7.8745041 -3 11 C-3.6875 9.1875 -3.6875 9.1875 -4 7 C-2.5625 5.4375 -2.5625 5.4375 -1 4 C-1 3.01 -1 2.02 -1 1 C-0.67 0.67 -0.34 0.34 0 0 Z " fill="#212224" transform="translate(652,725)"/>
<path d="M0 0 C1.32 0.66 2.64 1.32 4 2 C3.67 3.65 3.34 5.3 3 7 C1.35 6.67 -0.3 6.34 -2 6 C-1.34 4.02 -0.68 2.04 0 0 Z " fill="#111312" transform="translate(363,704)"/>
<path d="M0 0 C0 0.99 0 1.98 0 3 C0.3062434 4.33981486 0.63451555 5.67511887 1 7 C-1.31 6.67 -3.62 6.34 -6 6 C-4 4 -2 2 0 0 Z " fill="#EFF1F0" transform="translate(251,569)"/>
<path d="M0 0 C0.99 0 1.98 0 3 0 C2.67 2.64 2.34 5.28 2 8 C1.01 8 0.02 8 -1 8 C-0.67 5.36 -0.34 2.72 0 0 Z " fill="#1A1B1D" transform="translate(689,352)"/>
<path d="M0 0 C0 0.99 0 1.98 0 3 C-1.65 3 -3.3 3 -5 3 C-5 3.66 -5 4.32 -5 5 C-5.99 4.67 -6.98 4.34 -8 4 C-7.34 4 -6.68 4 -6 4 C-6 3.34 -6 2.68 -6 2 C-6.66 1.67 -7.32 1.34 -8 1 C-5.23735711 0.40267181 -2.83967231 0 0 0 Z " fill="#141414" transform="translate(656,327)"/>
<path d="M0 0 C1.64826111 2.96687001 2.44271087 5.65626525 3 9 C2.01 9.33 1.02 9.66 0 10 C-1.125 3.375 -1.125 3.375 0 0 Z " fill="#D8D9D9" transform="translate(197,325)"/>
<path d="M0 0 C2.97 0.99 5.94 1.98 9 3 C8.01 3.66 7.02 4.32 6 5 C2.3125 4.125 2.3125 4.125 -1 3 C-0.67 2.01 -0.34 1.02 0 0 Z " fill="#171717" transform="translate(559,290)"/>
<path d="M0 0 C2.31 1.98 4.62 3.96 7 6 C6.34 6.66 5.68 7.32 5 8 C3.02 6.35 1.04 4.7 -1 3 C-0.67 2.01 -0.34 1.02 0 0 Z " fill="#212222" transform="translate(492,281)"/>
<path d="M0 0 C2.875 0.3125 2.875 0.3125 6 1 C6.66 1.99 7.32 2.98 8 4 C7.01 4.66 6.02 5.32 5 6 C3.35 4.02 1.7 2.04 0 0 Z " fill="#EFF1F0" transform="translate(490,278)"/>
<path d="M0 0 C0.33 0 0.66 0 1 0 C1.22174933 1.45635371 1.42698698 2.91522956 1.625 4.375 C1.74101562 5.18710937 1.85703125 5.99921875 1.9765625 6.8359375 C1.98429687 7.55007813 1.99203125 8.26421875 2 9 C1.34 9.66 0.68 10.32 0 11 C-2.21538462 5.70769231 -2.21538462 5.70769231 -1.125 2.125 C-0.75375 1.42375 -0.3825 0.7225 0 0 Z " fill="#1B1B1B" transform="translate(356,258)"/>
<path d="M0 0 C3 4 3 4 4 7 C3.67 7.99 3.34 8.98 3 10 C2.34 10 1.68 10 1 10 C0.67 6.7 0.34 3.4 0 0 Z " fill="#1D1D1D" transform="translate(168,218)"/>
<path d="M0 0 C0.99 0 1.98 0 3 0 C3.625 2.875 3.625 2.875 4 6 C3.34 6.66 2.68 7.32 2 8 C2 7.01 2 6.02 2 5 C1.01 4.67 0.02 4.34 -1 4 C-0.67 2.68 -0.34 1.36 0 0 Z " fill="#1E1F20" transform="translate(744,124)"/>
<path d="M0 0 C4.95 0.33 9.9 0.66 15 1 C15 1.33 15 1.66 15 2 C10.38 2.33 5.76 2.66 1 3 C0.67 2.01 0.34 1.02 0 0 Z " fill="#505153" transform="translate(329,720)"/>
<path d="M0 0 C0.99 0.33 1.98 0.66 3 1 C3 3.31 3 5.62 3 8 C0.52557871 5.84832931 -0.56238367 4.28212246 -1 1 C-0.67 0.67 -0.34 0.34 0 0 Z " fill="#1C1C1C" transform="translate(200,627)"/>
<path d="M0 0 C0.99 0.33 1.98 0.66 3 1 C3 1.66 3 2.32 3 3 C3.99 3.33 4.98 3.66 6 4 C2.79937313 5.60031344 0.27728194 4.03173691 -3 3 C-2.01 2.01 -1.02 1.02 0 0 Z " fill="#D7D7D7" transform="translate(604,617)"/>
<path d="M0 0 C0.66 0.33 1.32 0.66 2 1 C1.67 3.64 1.34 6.28 1 9 C0.67 8.01 0.34 7.02 0 6 C-0.99 5.67 -1.98 5.34 -3 5 C-2.01 3.35 -1.02 1.7 0 0 Z " fill="#111212" transform="translate(205,539)"/>
<path d="M0 0 C0.99 0.99 1.98 1.98 3 3 C2.34 4.32 1.68 5.64 1 7 C-0.32 6.67 -1.64 6.34 -3 6 C-2.01 4.02 -1.02 2.04 0 0 Z " fill="#EBECEE" transform="translate(701,520)"/>
<path d="M0 0 C2.46278801 2.46278801 2.99771255 4.70676982 4 8 C3.01 8.66 2.02 9.32 1 10 C0.63883954 8.5225254 0.28624952 7.04295325 -0.0625 5.5625 C-0.25972656 4.73878906 -0.45695313 3.91507812 -0.66015625 3.06640625 C-0.82837891 2.04353516 -0.82837891 2.04353516 -1 1 C-0.67 0.67 -0.34 0.34 0 0 Z " fill="#121315" transform="translate(193,305)"/>
<path d="M0 0 C-1 3 -1 3 -2.75 4.1875 C-5.29960574 5.10819096 -7.30923081 5.14948718 -10 5 C-3.63636364 0 -3.63636364 0 0 0 Z " fill="#DBDBDB" transform="translate(680,287)"/>
<path d="M0 0 C1 2 1 2 0.0625 5.125 C-0.288125 6.07375 -0.63875 7.0225 -1 8 C-2.32 7.34 -3.64 6.68 -5 6 C-3.35 4.02 -1.7 2.04 0 0 Z " fill="#ECEDEE" transform="translate(237,231)"/>
<path d="M0 0 C5.53846154 -0.36923077 5.53846154 -0.36923077 7.875 1.5 C8.24625 1.995 8.6175 2.49 9 3 C7.02 3.99 7.02 3.99 5 5 C4.67 3.68 4.34 2.36 4 1 C2.68 0.67 1.36 0.34 0 0 Z " fill="#161718" transform="translate(233,226)"/>
<path d="M0 0 C2.12508244 3.18762365 2.5020163 5.26512223 3 9 C2.01 8.67 1.02 8.34 0 8 C-1.125 2.25 -1.125 2.25 0 0 Z " fill="#1A1A1A" transform="translate(157,176)"/>
<path d="M0 0 C0.66 0.33 1.32 0.66 2 1 C1.67 3.97 1.34 6.94 1 10 C-1.5654594 7.4345406 -1.54046087 5.52313332 -2 2 C-1.34 2 -0.68 2 0 2 C0 1.34 0 0.68 0 0 Z " fill="#DDDEDF" transform="translate(206,164)"/>
<path d="M0 0 C-0.625 1.875 -0.625 1.875 -2 4 C-5.125 5.25 -5.125 5.25 -8 6 C-3.375 0 -3.375 0 0 0 Z " fill="#171818" transform="translate(514,69)"/>
<path d="M0 0 C0.99 0.33 1.98 0.66 3 1 C2.67 1.99 2.34 2.98 2 4 C1.34 4 0.68 4 0 4 C-0.33 4.66 -0.66 5.32 -1 6 C-1.66 6 -2.32 6 -3 6 C-3 4.68 -3 3.36 -3 2 C-2.01 1.34 -1.02 0.68 0 0 Z " fill="#EEEFF1" transform="translate(381,762)"/>
<path d="M0 0 C0.66 0 1.32 0 2 0 C1.34 4.62 0.68 9.24 0 14 C-0.33 14 -0.66 14 -1 14 C-1.02685938 11.85423363 -1.04633088 9.70837355 -1.0625 7.5625 C-1.07410156 6.36753906 -1.08570313 5.17257812 -1.09765625 3.94140625 C-1 1 -1 1 0 0 Z " fill="#2A2B2B" transform="translate(313,684)"/>
<path d="M0 0 C0 0.99 0 1.98 0 3 C-1.65 3.66 -3.3 4.32 -5 5 C-5.66 4.34 -6.32 3.68 -7 3 C-2.25 0 -2.25 0 0 0 Z " fill="#E7E7E8" transform="translate(573,671)"/>
<path d="M0 0 C4.455 0.99 4.455 0.99 9 2 C8.34 2.66 7.68 3.32 7 4 C3.375 3.625 3.375 3.625 0 3 C0 2.01 0 1.02 0 0 Z " fill="#1D1D1D" transform="translate(599,619)"/>
<path d="M0 0 C1.98 0.99 3.96 1.98 6 3 C5.01 3.495 5.01 3.495 4 4 C3.67 4.66 3.34 5.32 3 6 C1.68 5.34 0.36 4.68 -1 4 C-0.34 4 0.32 4 1 4 C0.67 2.68 0.34 1.36 0 0 Z " fill="#101113" transform="translate(251,610)"/>
<path d="M0 0 C2.97 0.495 2.97 0.495 6 1 C3.53721199 3.46278801 1.29323018 3.99771255 -2 5 C-2.33 4.01 -2.66 3.02 -3 2 C-2.01 2 -1.02 2 0 2 C0 1.34 0 0.68 0 0 Z " fill="#242527" transform="translate(664,552)"/>
<path d="M0 0 C0.99 0 1.98 0 3 0 C2.34 3.3 1.68 6.6 1 10 C0.67 10 0.34 10 0 10 C-1.125 3.375 -1.125 3.375 0 0 Z " fill="#222224" transform="translate(716,454)"/>
<path d="M0 0 C0.99 0.99 1.98 1.98 3 3 C2.34 4.32 1.68 5.64 1 7 C0.01 7 -0.98 7 -2 7 C-1.34 4.69 -0.68 2.38 0 0 Z " fill="#0E0F11" transform="translate(373,335)"/>
<path d="M0 0 C2.125 0.9375 2.125 0.9375 4 2 C2.02 2.99 0.04 3.98 -2 5 C-2.66 4.34 -3.32 3.68 -4 3 C-3.34 3 -2.68 3 -2 3 C-2 2.34 -2 1.68 -2 1 C-1.34 0.67 -0.68 0.34 0 0 Z " fill="#E5E7E6" transform="translate(693,308)"/>
<path d="M0 0 C3.77545388 1.09068668 6.47043472 1.9083091 9 5 C8.01 5.33 7.02 5.66 6 6 C2.8125 4.1875 2.8125 4.1875 0 2 C0 1.34 0 0.68 0 0 Z " fill="#E4E5E6" transform="translate(524,305)"/>
<path d="M0 0 C2.64 0.33 5.28 0.66 8 1 C8.33 2.32 8.66 3.64 9 5 C5.54074837 3.7508258 2.85306797 2.32472205 0 0 Z " fill="#18181A" transform="translate(540,283)"/>
<path d="M0 0 C0.66 0.66 1.32 1.32 2 2 C0.35 3.65 -1.3 5.3 -3 7 C-3 3 -3 3 -1.5 1.25 C-1.005 0.8375 -0.51 0.425 0 0 Z " fill="#E8E8E8" transform="translate(744,265)"/>
<path d="M0 0 C0.33 0.66 0.66 1.32 1 2 C1.66 2 2.32 2 3 2 C5 5 5 5 4.625 7.1875 C4.41875 7.785625 4.2125 8.38375 4 9 C0 4.5 0 4.5 0 0 Z " fill="#1C1E1D" transform="translate(503,247)"/>
<path d="M0 0 C0.33 0.66 0.66 1.32 1 2 C1.99 1.67 2.98 1.34 4 1 C4.33 1.66 4.66 2.32 5 3 C3.35 4.32 1.7 5.64 0 7 C-0.38133299 5.0085944 -0.71325582 3.00720923 -1 1 C-0.67 0.67 -0.34 0.34 0 0 Z " fill="#17181A" transform="translate(163,198)"/>
<path d="M0 0 C2 3 2 3 1.6875 5.0625 C1 7 1 7 0 9 C-0.99 8.67 -1.98 8.34 -3 8 C-2.5359375 7.13375 -2.5359375 7.13375 -2.0625 6.25 C-1.07416636 4.15705816 -0.4831387 2.25464725 0 0 Z " fill="#151515" transform="translate(516,145)"/>
<path d="M0 0 C0.33 0 0.66 0 1 0 C1.66 3.3 2.32 6.6 3 10 C1.68 9.34 0.36 8.68 -1 8 C-0.67 5.36 -0.34 2.72 0 0 Z " fill="#DBDBDB" transform="translate(503,712)"/>
<path d="M0 0 C4.875 4.75 4.875 4.75 6 7 C5.01 7.33 4.02 7.66 3 8 C0 3.375 0 3.375 0 0 Z " fill="#282829" transform="translate(638,641)"/>
<path d="M0 0 C1.485 0.99 1.485 0.99 3 2 C2.67 3.65 2.34 5.3 2 7 C1.01 7.33 0.02 7.66 -1 8 C-0.67 5.36 -0.34 2.72 0 0 Z " fill="#222325" transform="translate(657,480)"/>
<path d="M0 0 C1.125 1.75 1.125 1.75 2 4 C1.125 6.25 1.125 6.25 0 8 C-0.66 8 -1.32 8 -2 8 C-1.125 1.125 -1.125 1.125 0 0 Z " fill="#1F2022" transform="translate(660,471)"/>
<path d="M0 0 C2.64 0.66 5.28 1.32 8 2 C7.34 2.66 6.68 3.32 6 4 C2.375 3.625 2.375 3.625 -1 3 C-0.67 2.01 -0.34 1.02 0 0 Z " fill="#1A1B1D" transform="translate(552,321)"/>
<path d="M0 0 C-1.65 1.65 -3.3 3.3 -5 5 C-5.66 3.68 -6.32 2.36 -7 1 C-3.375 -1.125 -3.375 -1.125 0 0 Z " fill="#1A1B1C" transform="translate(704,270)"/>
<path d="M0 0 C0.93065133 2.60582371 1.14917407 3.64198224 0.0625 6.25 C-0.4634375 7.11625 -0.4634375 7.11625 -1 8 C-1.66 7.34 -2.32 6.68 -3 6 C-2.75 3.4375 -2.75 3.4375 -2 1 C-1.34 0.67 -0.68 0.34 0 0 Z " fill="#0E0F11" transform="translate(308,268)"/>
<path d="M0 0 C1.4606285 2.64738916 2 3.89448334 2 7 C1.01 7.495 1.01 7.495 0 8 C-0.99 7.34 -1.98 6.68 -3 6 C-2.67 5.34 -2.34 4.68 -2 4 C-1.34 4 -0.68 4 0 4 C0 2.68 0 1.36 0 0 Z " fill="#F2F2F4" transform="translate(626,252)"/>
<path d="M0 0 C2.97 0.495 2.97 0.495 6 1 C6 1.66 6 2.32 6 3 C5.34 3 4.68 3 4 3 C3.67 3.66 3.34 4.32 3 5 C2.01 4.34 1.02 3.68 0 3 C0 2.01 0 1.02 0 0 Z " fill="#F2F3F2" transform="translate(689,45)"/>
<path d="M0 0 C0 3 0 3 -2 6 C-2.99 6 -3.98 6 -5 6 C-4.75 4.125 -4.75 4.125 -4 2 C-1.9375 0.75 -1.9375 0.75 0 0 Z " fill="#101010" transform="translate(553,38)"/>
<path d="M0 0 C2.50357192 1.25178596 4.06433379 2.99981158 6 5 C2.7 4.34 -0.6 3.68 -4 3 C-2.68 2.01 -1.36 1.02 0 0 Z " fill="#DDDDDD" transform="translate(652,27)"/>
<path d="M0 0 C0.33 0.66 0.66 1.32 1 2 C3.01669827 3.13350534 3.01669827 3.13350534 5 4 C4.01 4.66 3.02 5.32 2 6 C0.68 4.35 -0.64 2.7 -2 1 C-1.34 0.67 -0.68 0.34 0 0 Z " fill="#242526" transform="translate(283,749)"/>
<path d="M0 0 C1.32 0.66 2.64 1.32 4 2 C2.68 3.32 1.36 4.64 0 6 C-0.66 5.34 -1.32 4.68 -2 4 C-1.34 2.68 -0.68 1.36 0 0 Z " fill="#1C1D1E" transform="translate(638,744)"/>
<path d="M0 0 C0.33 0 0.66 0 1 0 C1.33 2.31 1.66 4.62 2 7 C0.35 7.33 -1.3 7.66 -3 8 C-2.01 5.36 -1.02 2.72 0 0 Z " fill="#E6E7E9" transform="translate(654,725)"/>
<path d="M0 0 C-0.33 0.99 -0.66 1.98 -1 3 C-2.65 3 -4.3 3 -6 3 C-6 2.01 -6 1.02 -6 0 C-3.50907189 -1.24546405 -2.58919267 -0.7767578 0 0 Z " fill="#17181A" transform="translate(344,724)"/>
<path d="M0 0 C2 0.3125 2 0.3125 4 1 C4.33 1.66 4.66 2.32 5 3 C4.34 3.66 3.68 4.32 3 5 C2.01 4.67 1.02 4.34 0 4 C-0.33 3.01 -0.66 2.02 -1 1 C-0.67 0.67 -0.34 0.34 0 0 Z " fill="#131514" transform="translate(355,715)"/>
<path d="M0 0 C1.65 0 3.3 0 5 0 C4.34 1.65 3.68 3.3 3 5 C1.68 4.34 0.36 3.68 -1 3 C-0.67 2.01 -0.34 1.02 0 0 Z " fill="#0E0F11" transform="translate(347,667)"/>
<path d="M0 0 C2.97 1.98 2.97 1.98 6 4 C5.34 4.66 4.68 5.32 4 6 C3.34 5.34 2.68 4.68 2 4 C1.01 4.495 1.01 4.495 0 5 C-0.5625 3.0625 -0.5625 3.0625 -1 1 C-0.67 0.67 -0.34 0.34 0 0 Z " fill="#E3E4E4" transform="translate(216,650)"/>
<path d="M0 0 C1.32 1.32 2.64 2.64 4 4 C3.01 4.66 2.02 5.32 1 6 C0.01 4.68 -0.98 3.36 -2 2 C-1.34 2 -0.68 2 0 2 C0 1.34 0 0.68 0 0 Z " fill="#E2E2E2" transform="translate(635,634)"/>
<path d="M0 0 C0.66 0.66 1.32 1.32 2 2 C1.96712417 4.72869407 1.43602229 7.2966618 1 10 C0.67 10 0.34 10 0 10 C-0.19412181 8.52168779 -0.38012131 7.04230684 -0.5625 5.5625 C-0.66691406 4.73878906 -0.77132813 3.91507812 -0.87890625 3.06640625 C-0.91886719 2.38449219 -0.95882813 1.70257813 -1 1 C-0.67 0.67 -0.34 0.34 0 0 Z " fill="#2D2D2D" transform="translate(331,384)"/>
<path d="M0 0 C0.99 0.33 1.98 0.66 3 1 C3 1.99 3 2.98 3 4 C3.66 4.33 4.32 4.66 5 5 C4.01 5.99 3.02 6.98 2 8 C2 6.68 2 5.36 2 4 C1.34 4 0.68 4 0 4 C0 2.68 0 1.36 0 0 Z " fill="#101113" transform="translate(690,348)"/>
<path d="M0 0 C1.61949011 2.57213134 2.04408751 3.67669159 1.625 6.75 C1.41875 7.4925 1.2125 8.235 1 9 C0.34 8.34 -0.32 7.68 -1 7 C-0.625 3.375 -0.625 3.375 0 0 Z " fill="#1B1B1B" transform="translate(189,288)"/>
<path d="M0 0 C1.32 1.32 2.64 2.64 4 4 C3.67 4.99 3.34 5.98 3 7 C1.68 6.01 0.36 5.02 -1 4 C-0.67 2.68 -0.34 1.36 0 0 Z " fill="#1D1E1F" transform="translate(477,263)"/>
<path d="M0 0 C0.99 0 1.98 0 3 0 C3.33 1.32 3.66 2.64 4 4 C2.68 4 1.36 4 0 4 C0 2.68 0 1.36 0 0 Z " fill="#F1F1F1" transform="translate(746,258)"/>
<path d="M0 0 C0.99 0.33 1.98 0.66 3 1 C1.95125002 3.62187494 1.35068687 4.79371361 -1.125 6.25 C-1.74375 6.4975 -2.3625 6.745 -3 7 C-1.125 2.25 -1.125 2.25 0 0 Z " fill="#DEDEDE" transform="translate(737,227)"/>
<path d="M0 0 C0.66 0.66 1.32 1.32 2 2 C1.625 5.625 1.625 5.625 1 9 C-1 6 -1 6 -0.625 2.8125 C-0.41875 1.884375 -0.2125 0.95625 0 0 Z " fill="#222325" transform="translate(481,117)"/>
<path d="M0 0 C1.98 0.495 1.98 0.495 4 1 C3.67 2.32 3.34 3.64 3 5 C1.68 5 0.36 5 -1 5 C-0.67 3.35 -0.34 1.7 0 0 Z " fill="#141517" transform="translate(483,112)"/>
</svg>
